<?xml version="1.0" standalone="no"?>
<!DOCTYPE svg PUBLIC "-//W3C//DTD SVG 1.1//EN" "http://www.w3.org/Graphics/SVG/1.1/DTD/svg11.dtd">
<svg xmlns="http://www.w3.org/2000/svg">
<defs >
<font id="SourceSans3" horiz-adv-x="477" ><font-face
    font-family="Source Sans 3 ExtraLight"
    units-per-em="1000"
    panose-1="2 11 3 3 3 4 3 9 2 4"
    ascent="1024"
    descent="-400"
    alphabetic="0" />
<glyph unicode=" " horiz-adv-x="200" />
<glyph unicode="!" horiz-adv-x="242" d="M92 172L188 672H216L204 608L116 172H92ZM70 -12Q57 -12 50 -3T42 18Q42 29 48 39T63 57T84 64Q98 64 104 55T110 32Q110 21 105 11T90 -5T70 -12Z" />
<glyph unicode="&quot;" horiz-adv-x="324" d="M134 478L158 608L170 672H198L186 608L156 478H134ZM256 478L280 608L292 672H320L308 608L278 478H256Z" />
<glyph unicode="#" horiz-adv-x="458" d="M42 0L110 218H28L36 246H118L172 424H88L96 452H182L244 650H272L210 452H356L418 650H446L384 452H466L458 424H376L322 246H406L398 218H312L244 0H216L284 218H138L70 0H42ZM146 246H294L348 424H200L146 246Z" />
<glyph unicode="$" horiz-adv-x="456" d="M194 -12Q157 -12 125 2T67 36T25 78L46 98Q69 67 107 41T194 14Q238 14 273 33T329 86T350 164Q350 207 334 237T293 291T239 335T186 376T144 426T128 492Q128 538 150 574T210 631T296 652Q340 652 378 627T438 568L416
550Q395 582 364 604T294 626Q236 626 196 591T156 498Q156 462 172 436T213 389T267 348T320 304T362 248T378 170Q378 120 355 79T291 13T194 -12ZM148 -110L168 -8H196L176 -110H148ZM291 634L315 750H343L319 634H291Z" />
<glyph unicode="%" horiz-adv-x="760" d="M178 258Q140 258 116 278T80 331T68 404Q68 446 79 492T111 580T166 646T242 672Q280 672 304 652T340 599T352 526Q352 484 341 438T309 350T255 284T178 258ZM180 282Q216 282 243 305T288 366T315 444T324 520Q324
573 305 610T240 648Q204 648 177 625T132 564T105 486T96 410Q96 357 115 320T180 282ZM130 -12L622 672H652L160 -12H130ZM544 -12Q506 -12 482 8T446 61T434 134Q434 176 445 222T477 310T532 376T608 402Q646 402 670 382T706 329T718 256Q718 214 707 168T675
80T621 14T544 -12ZM546 12Q582 12 609 35T654 96T681 174T690 250Q690 303 671 340T606 378Q570 378 543 355T498 294T471 216T462 140Q462 87 481 50T546 12Z" />
<glyph unicode="&amp;" horiz-adv-x="542" d="M163 -12Q100 -12 58 27T16 134Q16 190 42 232T111 307T201 370T290 430T359 496T386 577Q386 603 372 624T326 646Q291 646 263 625T220 568T204 486Q204 422 225 352T283 217T364 104Q394 72 422 48T478 12L464
-12Q436 0 406 24T343 84Q299 134 261 201T199 342T176 482Q176 540 198 582T254 648T328 672Q373 672 393 646T414 584Q414 533 388 494T319 423T230 361T141 299T73 229T46 140Q46 83 81 49T170 14Q217 14 262 39T347 102Q397 151 435 211T506 341H534Q500 268
458 202T364 84Q321 41 270 15T163 -12Z" />
<glyph unicode="&apos;" horiz-adv-x="202" d="M134 478L158 608L170 672H198L186 608L156 478H134Z" />
<glyph unicode="(" horiz-adv-x="260" d="M128 -174Q103 -115 88 -32T72 134Q72 256 100 366T180 569T304 730L322 716Q251 650 202 557T126 354T100 128Q100 53 112 -27T148 -168L128 -174Z" />
<glyph unicode=")" horiz-adv-x="262" d="M-36 -174L-54 -160Q17 -94 66 -1T142 202T168 428Q168 503 156 583T120 724L140 730Q166 672 181 589T196 422Q196 300 168 190T88 -13T-36 -174Z" />
<glyph unicode="*" horiz-adv-x="374" d="M178 488L162 502L226 582L144 626L152 646L244 614L264 712L286 710L278 612L372 626L376 604L280 578L318 488L298 476L252 560L178 488Z" />
<glyph unicode="+" horiz-adv-x="456" d="M228 110V318H48V344H228V546H256V344H436V318H256V110H228Z" />
<glyph unicode="," horiz-adv-x="202" d="M-26 -146L-34 -122Q5 -104 31 -74T62 -6L60 50L84 4Q80 -3 71 -5T56 -8Q43 -8 35 0T26 22Q26 37 37 50T66 64Q82 64 90 52T98 22Q98 -15 82 -48T37 -106T-26 -146Z" />
<glyph unicode="-" horiz-adv-x="282" d="M36 236L42 264H248L242 236H36Z" />
<glyph unicode="." horiz-adv-x="202" d="M50 -12Q37 -12 30 -3T22 18Q22 29 28 39T43 57T64 64Q78 64 84 55T90 32Q90 21 85 11T70 -5T50 -12Z" />
<glyph unicode="/" horiz-adv-x="350" d="M-74 -160L410 710H438L-46 -160H-74Z" />
<glyph unicode="0" horiz-adv-x="456" d="M186 -12Q136 -12 105 18T60 96T46 196Q46 257 58 321T92 444T145 550T214 624T296 652Q345 652 376 621T421 541T436 442Q436 381 424 317T390 194T337 89T268 15T186 -12ZM186 14Q224 14 258 40T319 111T367 211T397
325T408 436Q408 485 396 528T359 599T294 626Q256 626 223 599T162 527T115 427T85 313T74 202Q74 154 85 111T121 41T186 14Z" />
<glyph unicode="1" horiz-adv-x="456" d="M32 0L38 26H182L294 582H182L186 602Q222 607 255 617T310 640H334L210 26H350L346 0H32Z" />
<glyph unicode="2" horiz-adv-x="456" d="M-8 0L-6 18Q104 113 182 182T308 304T379 403T402 500Q402 551 372 588T276 626Q240 626 202 608T124 552L106 570Q150 611 190 631T278 652Q353 652 391 610T430 506Q430 450 407 400T335 295T212 175T36 22Q63 24 90
25T144 26H366L362 0H-8Z" />
<glyph unicode="3" horiz-adv-x="456" d="M174 -12Q128 -12 93 5T34 47T-4 94L18 110Q33 88 54 66T106 29T178 14Q233 14 276 36T343 97T368 182Q368 221 347 253T279 303T160 322L166 348Q233 348 279 363T353 402T393 453T406 506Q406 559 378 592T286 626Q252
626 211 610T142 566L124 588Q159 617 202 634T288 652Q338 652 370 635T418 586T434 512Q434 451 392 402T276 334V330Q329 315 362 279T396 188Q396 129 368 84T289 14T174 -12Z" />
<glyph unicode="4" horiz-adv-x="456" d="M296 0H268L307 194H20L22 210L404 640H424L340 220H432L426 194H335L296 0ZM66 220H312L362 470Q367 493 375 524T390 586H386Q365 559 345 535T306 490L66 220Z" />
<glyph unicode="5" horiz-adv-x="456" d="M174 -12Q127 -12 94 4T38 45T2 92L24 108Q37 87 56 66T104 29T180 14Q231 14 275 41T347 115T374 226Q374 301 336 337T236 374Q200 374 174 365T118 338L100 352L180 640H446L440 614H200L134 374Q154 385 179 392T236
400Q308 400 355 358T402 232Q402 177 384 132T334 55T261 5T174 -12Z" />
<glyph unicode="6" horiz-adv-x="456" d="M212 -12Q162 -12 126 15T71 89T52 196Q52 286 74 368T135 514T228 615T344 652Q388 652 416 632T462 576L440 562Q422 594 399 610T342 626Q288 626 241 590T158 494T101 358T80 202Q80 148 96 106T142 39T214 14Q257
14 295 40T356 109T380 202Q380 270 348 310T252 350Q234 350 205 342T142 312T78 250L80 288Q118 335 166 356T254 378Q303 378 337 357T390 298T408 212Q408 165 393 124T351 53T289 5T212 -12Z" />
<glyph unicode="7" horiz-adv-x="456" d="M136 0Q164 117 202 219T300 418T450 614H114L120 640H492L488 620Q413 541 361 466T272 315T212 162T168 0H136Z" />
<glyph unicode="8" horiz-adv-x="456" d="M206 -12Q173 -12 142 -1T87 31T49 83T34 156Q34 207 57 245T118 310T196 356V360Q166 389 152 420T138 494Q138 544 161 579T223 633T308 652Q346 652 378 635T430 585T450 502Q450 436 412 394T316 320V316Q332 305
353 283T390 231T406 162Q406 108 379 69T306 9T206 -12ZM292 332Q325 349 354 373T403 429T422 500Q422 562 387 594T306 626Q270 626 238 611T186 566T166 496Q166 433 200 397T292 332ZM208 14Q250 14 289 30T353 79T378 156Q378 204 355 237T295 295T216 342Q149
309 106 267T62 158Q62 111 83 79T137 31T208 14Z" />
<glyph unicode="9" horiz-adv-x="456" d="M148 -12Q117 -12 93 -3T51 23T20 64L44 80Q62 46 88 30T150 14Q202 14 247 47T328 139T382 274T402 438Q402 492 386 534T340 601T268 626Q225 626 187 600T126 531T102 438Q102 371 134 331T230 290Q249 290 278 298T340
328T404 390L402 352Q365 305 317 284T228 262Q179 262 145 283T92 342T74 428Q74 475 89 516T131 587T194 635T270 652Q320 652 356 625T411 551T430 444Q430 347 409 264T349 119T260 23T148 -12Z" />
<glyph unicode=":" horiz-adv-x="202" d="M130 378Q117 378 110 387T102 408Q102 419 108 429T123 447T144 454Q158 454 164 445T170 422Q170 411 165 401T150 385T130 378ZM50 -12Q37 -12 30 -3T22 18Q22 29 28 39T43 57T64 64Q78 64 84 55T90 32Q90 21 85 11T70
-5T50 -12Z" />
<glyph unicode=";" horiz-adv-x="202" d="M130 378Q117 378 110 387T102 408Q102 419 108 429T123 447T144 454Q158 454 164 445T170 422Q170 411 165 401T150 385T130 378ZM-26 -146L-34 -122Q5 -104 31 -74T62 -6L60 50L84 4Q80 -3 71 -5T56 -8Q43 -8 35 0T26
22Q26 37 37 50T66 64Q82 64 90 52T98 22Q98 -15 82 -48T37 -106T-26 -146Z" />
<glyph unicode="&lt;" horiz-adv-x="456" d="M436 156L46 316V344L436 504V476L206 382L84 332V328L206 278L436 184V156Z" />
<glyph unicode="=" horiz-adv-x="456" d="M48 416V442H436V416H48ZM48 474V500H436V474H48Z" />
<glyph unicode="&gt;" horiz-adv-x="456" d="M48 156V184L278 278L400 328V332L278 382L48 476V504L438 344V316L48 156Z" />
<glyph unicode="?" horiz-adv-x="380" d="M144 176Q146 229 168 268T221 341T284 404T337 469T358 548Q358 599 331 627T256 656Q220 656 186 639T128 594L110 614Q134 641 173 661T258 682Q318 682 352 648T386 554Q386 504 365 466T313 396T249 331T195 261T170
174L144 176ZM126 -12Q113 -12 106 -3T98 18Q98 29 104 39T119 57T140 64Q154 64 160 55T166 32Q166 21 161 11T146 -5T126 -12Z" />
<glyph unicode="@" horiz-adv-x="772" d="M330 -142Q268 -142 216 -121T126 -59T67 37T46 164Q46 264 81 348T175 494T309 591T462 626Q549 626 610 590T702 490T734 340Q734 249 707 185T637 88T548 54Q512 54 491 75T464 130H462Q437 102 409 82T346 62Q319
62 295 76T254 118T238 190Q238 232 252 273T293 347T353 400T428 420Q452 420 471 406T504 368H506L518 412H542L494 200Q482 149 494 115T552 80Q589 80 624 110T683 197T706 334Q706 394 690 443T643 527T566 581T460 600Q387 600 318 568T194 477T107 340T74
170Q74 103 93 50T146 -40T227 -96T332 -116Q376 -116 411 -107T480 -78L492 -100Q453 -122 412 -132T330 -142ZM348 88Q375 88 403 106T458 160L498 338Q480 371 462 382T426 394Q391 394 362 376T311 328T278 264T266 196Q266 141 290 115T348 88Z" />
<glyph unicode="A" horiz-adv-x="480" d="M-42 0L320 660H350L434 0H404L356 396Q350 452 343 509T330 626H326Q296 565 266 510T204 396L-12 0H-42ZM104 238L112 264H392L386 238H104Z" />
<glyph unicode="B" horiz-adv-x="550" d="M40 0L172 660H328Q420 660 469 622T518 518Q518 468 494 433T434 377T368 352V348Q400 341 429 324T476 277T494 206Q494 136 461 91T369 23T230 0H40ZM142 364H260Q374 364 431 407T488 516Q488 572 446 603T312 634H196L142
364ZM74 26H212Q287 26 344 43T432 100T464 203Q464 267 416 302T278 338H138L74 26Z" />
<glyph unicode="C" horiz-adv-x="536" d="M278 -12Q204 -12 155 22T82 114T58 246Q58 304 72 364T114 479T182 577T275 646T390 672Q446 672 486 645T542 576L520 566Q502 604 469 625T388 646Q330 646 283 622T200 556T138 464T101 357T88 252Q88 185 108 131T170
46T280 14Q328 14 369 31T444 78L458 62Q418 26 375 7T278 -12Z" />
<glyph unicode="D" horiz-adv-x="572" d="M40 0L172 660H276Q367 660 427 628T516 538T546 404Q546 320 524 247T457 118T347 32T194 0H40ZM74 26H196Q273 26 332 56T433 139T495 259T516 402Q516 470 490 522T410 604T274 634H196L74 26Z" />
<glyph unicode="E" horiz-adv-x="484" d="M40 0L172 660H514L508 634H196L142 364H406L400 338H138L74 26H396L390 0H40Z" />
<glyph unicode="F" horiz-adv-x="448" d="M40 0L172 660H514L508 634H196L140 352H404L398 326H136L70 0H40Z" />
<glyph unicode="G" horiz-adv-x="570" d="M288 -12Q210 -12 159 21T83 113T58 246Q58 319 80 394T145 532T251 633T396 672Q455 672 494 644T552 578L530 564Q511 600 478 623T394 646Q335 646 287 622T202 557T140 464T101 358T88 252Q88 187 108 133T172 47T290
14Q338 14 374 30T434 68L478 290H320L326 316H514L460 54Q426 24 384 6T288 -12Z" />
<glyph unicode="H" horiz-adv-x="598" d="M40 0L172 660H202L142 364H498L558 660H588L456 0H426L494 338H138L70 0H40Z" />
<glyph unicode="I" horiz-adv-x="212" d="M40 0L172 660H202L70 0H40Z" />
<glyph unicode="J" horiz-adv-x="428" d="M146 -12Q86 -12 52 16T2 90L24 100Q41 57 70 36T148 14Q207 14 244 57T294 170L392 660H422L324 168Q314 113 290 73T230 10T146 -12Z" />
<glyph unicode="K" horiz-adv-x="522" d="M40 0L172 660H202L128 290H130L526 660H564L312 422L464 0H432L288 402L120 244L70 0H40Z" />
<glyph unicode="L" horiz-adv-x="432" d="M40 0L172 660H202L76 26H376L370 0H40Z" />
<glyph unicode="M" horiz-adv-x="676" d="M40 0L172 660H222L288 262Q294 225 300 188T314 112H318Q338 150 356 187T396 262L616 660H666L534 0H504L596 460Q602 487 608 517T621 576T634 632H630L552 490L326 76H292L220 490L196 632H192Q187 605 182 576T172
517T162 460L70 0H40Z" />
<glyph unicode="N" horiz-adv-x="600" d="M40 0L172 660H206L386 182Q394 161 402 139T419 93T436 46H440Q448 94 456 139T474 230L560 660H590L458 0H426L244 484Q232 516 219 551T194 620H190Q183 572 174 527T156 436L70 0H40Z" />
<glyph unicode="O" horiz-adv-x="612" d="M274 -12Q202 -12 155 23T85 120T62 262Q62 315 75 372T114 482T177 578T264 646T372 672Q444 672 491 637T561 540T584 398Q584 345 571 288T532 178T469 82T382 14T274 -12ZM276 14Q330 14 374 38T451 102T508 193T542
295T554 394Q554 468 535 525T476 614T370 646Q316 646 272 622T195 558T138 467T104 365T92 266Q92 192 111 135T170 46T276 14Z" />
<glyph unicode="P" horiz-adv-x="524" d="M40 0L172 660H340Q400 660 443 644T509 595T532 510Q532 456 513 416T458 348T371 308T256 294H128L70 0H40ZM134 320H250Q375 320 438 367T502 508Q502 576 457 605T322 634H196L134 320Z" />
<glyph unicode="Q" horiz-adv-x="612" d="M274 -12Q202 -12 155 23T85 120T62 262Q62 315 75 372T114 482T177 578T264 646T372 672Q444 672 491 637T561 540T584 398Q584 345 571 288T532 178T469 82T382 14T274 -12ZM276 14Q330 14 374 38T451 102T508 193T542
295T554 394Q554 468 535 525T476 614T370 646Q316 646 272 622T195 558T138 467T104 365T92 266Q92 192 111 135T170 46T276 14ZM440 -150Q391 -150 349 -134T279 -83T242 6L272 0Q279 -41 302 -68T362 -108T442 -122Q454 -122 465 -121T486 -116L492 -142Q468
-150 440 -150Z" />
<glyph unicode="R" horiz-adv-x="522" d="M40 0L172 660H332Q391 660 433 646T499 600T522 518Q522 470 504 432T452 366T373 325T274 310H132L70 0H40ZM138 336H260Q371 336 431 384T492 516Q492 581 448 607T314 634H196L138 336ZM400 0L272 312L300 324L434 0H400Z" />
<glyph unicode="S" horiz-adv-x="488" d="M226 -12Q156 -12 104 17T18 98L42 114Q74 66 120 40T230 14Q280 14 320 34T384 90T408 176Q408 221 385 252T322 306L234 358Q194 382 162 418T130 506Q130 550 153 588T217 649T314 672Q374 672 419 646T490 584L468
566Q443 599 403 622T308 646Q263 646 230 626T179 575T160 510Q160 462 187 433T248 384L334 334Q381 307 409 271T438 180Q438 122 410 79T334 12T226 -12Z" />
<glyph unicode="T" horiz-adv-x="492" d="M180 0L306 634H100L106 660H548L542 634H336L210 0H180Z" />
<glyph unicode="U" horiz-adv-x="594" d="M268 -12Q181 -12 132 38T82 180Q82 200 84 219T90 262L170 660H200L122 270Q116 246 114 226T112 188Q112 106 152 60T272 14Q316 14 355 34T425 103T472 238L556 660H586L500 230Q481 135 446 83T365 9T268 -12Z" />
<glyph unicode="V" horiz-adv-x="450" d="M146 0L84 660H112L148 260Q154 206 160 150T170 38H174Q201 92 230 150T288 260L498 660H528L180 0H146Z" />
<glyph unicode="W" horiz-adv-x="726" d="M110 0L108 660H138V260Q137 206 137 152T136 40H140Q166 97 191 151T240 260L428 660H462L476 260Q479 206 481 152T484 40H488Q511 97 533 151T580 260L748 660H780L496 0H458L442 472Q442 513 441 550T440 628H436Q421
588 404 551T368 472L148 0H110Z" />
<glyph unicode="X" horiz-adv-x="446" d="M-36 0L224 344L110 660H142L214 450Q222 428 228 409T244 366H246Q264 390 281 412T314 456L466 660H500L256 338L380 0H348L272 218Q264 242 255 267T236 318H234Q213 290 194 263T156 212L-2 0H-36Z" />
<glyph unicode="Y" horiz-adv-x="422" d="M140 0L195 273L86 660H116L175 445Q185 409 194 374T214 302H216Q241 337 265 373T315 445L466 660H498L225 273L170 0H140Z" />
<glyph unicode="Z" horiz-adv-x="502" d="M2 0L6 18L486 634H152L158 660H528L524 642L46 26H416L410 0H2Z" />
<glyph unicode="[" horiz-adv-x="262" d="M18 -152L190 708H334L332 686H208L46 -130H168L162 -152H18Z" />
<glyph unicode="\" horiz-adv-x="350" d="M238 -160L90 710H114L262 -160H238Z" />
<glyph unicode="]" horiz-adv-x="262" d="M-64 -152L-60 -130H62L228 686H104L108 708H254L82 -152H-64Z" />
<glyph unicode="^" horiz-adv-x="458" d="M92 290L236 670H260L404 290H378L298 502L250 634H248L200 502L120 290H92Z" />
<glyph unicode="_" horiz-adv-x="484" d="M-26 -112L-20 -84H438L432 -112H-26Z" />
<glyph unicode="`" horiz-adv-x="504" d="M378 570L254 716L256 720H288L404 570H378Z" />
<glyph unicode="a" horiz-adv-x="524" d="M186 -12Q123 -12 85 32T46 160Q46 229 67 289T126 394T210 464T306 490Q350 490 381 468T432 410H436L454 478H478L382 0H358L370 78H366Q329 39 283 14T186 -12ZM188 14Q238 14 285 42T378 122L430 372Q402 422 371
443T304 464Q259 464 218 439T144 371T93 275T74 166Q74 90 105 52T188 14Z" />
<glyph unicode="b" horiz-adv-x="522" d="M216 -12Q173 -12 142 10T90 68H86L68 0H44L188 722H216L172 506L152 408H154Q193 440 239 465T336 490Q399 490 437 446T476 318Q476 249 455 189T396 84T312 14T216 -12ZM218 14Q263 14 304 39T378 107T429 203T448
312Q448 388 418 426T334 464Q292 464 241 438T146 372L92 106Q121 57 151 36T218 14Z" />
<glyph unicode="c" horiz-adv-x="428" d="M210 -12Q159 -12 122 10T64 74T44 176Q44 247 66 304T124 403T206 467T298 490Q340 490 369 475T418 432L400 418Q381 442 357 453T296 464Q254 464 214 442T142 380T91 290T72 182Q72 100 107 57T212 14Q247 14 283
29T344 64L358 46Q334 25 296 7T210 -12Z" />
<glyph unicode="d" horiz-adv-x="526" d="M186 -12Q123 -12 85 32T46 160Q46 229 67 289T126 394T210 464T306 490Q350 490 381 468T432 410H436L456 506L500 722H528L382 0H358L370 78H366Q329 39 283 14T186 -12ZM188 14Q238 14 285 42T378 122L430 372Q402
422 371 443T304 464Q259 464 218 439T144 371T93 275T74 166Q74 90 105 52T188 14Z" />
<glyph unicode="e" horiz-adv-x="468" d="M224 -12Q142 -12 93 38T44 184Q44 252 65 308T121 404T200 467T290 490Q341 490 372 469T418 409T432 322Q432 306 431 292T426 265T420 242H68L74 268H398Q401 283 402 297T404 328Q404 362 393 393T357 444T288 464Q248
464 210 443T140 385T91 296T72 186Q72 123 93 86T150 31T226 14Q264 14 293 26T350 58L364 40Q337 19 303 4T224 -12Z" />
<glyph unicode="f" horiz-adv-x="246" d="M48 0L138 452H70L76 474L144 478L168 598Q178 645 196 675T239 719T292 734Q316 734 333 728T362 712L350 692Q338 700 325 704T290 708Q253 708 229 675T196 598L172 478H280L274 452H166L76 0H48Z" />
<glyph unicode="g" horiz-adv-x="518" d="M166 -234Q117 -234 76 -216T6 -168L24 -150Q50 -175 88 -191T168 -208Q242 -208 284 -159T342 -30L366 86Q324 46 280 21T184 -4Q123 -4 85 40T46 166Q46 233 67 291T125 394T207 464T300 490Q343 490 375 468T426 410H430L448
478H472L366 -48Q348 -133 298 -183T166 -234ZM186 22Q228 22 278 50T372 124L424 372Q395 422 365 443T298 464Q255 464 215 439T143 372T93 277T74 172Q74 97 104 60T186 22Z" />
<glyph unicode="h" horiz-adv-x="504" d="M44 0L188 722H216L160 444L148 398H152Q200 439 242 464T328 490Q390 490 416 458T442 374Q442 356 441 344T434 310L372 0H344L406 306Q411 329 412 342T414 370Q414 417 393 440T324 464Q291 464 246 439T144 358L72 0H44Z" />
<glyph unicode="i" horiz-adv-x="214" d="M44 0L140 478H168L72 0H44ZM180 600Q168 600 160 608T152 628Q152 646 163 657T188 668Q200 668 208 660T216 638Q216 622 205 611T180 600Z" />
<glyph unicode="j" horiz-adv-x="214" d="M-60 -234Q-78 -234 -92 -231T-118 -220L-108 -198Q-97 -204 -85 -206T-60 -208Q-28 -208 -8 -179T22 -104L140 478H168L52 -100Q44 -141 30 -171T-7 -217T-60 -234ZM180 600Q168 600 160 608T152 628Q152 646 163 657T188
668Q200 668 208 660T216 638Q216 622 205 611T180 600Z" />
<glyph unicode="k" horiz-adv-x="436" d="M44 0L188 722H216L108 176H110L408 478H444L258 286L374 0H344L236 266L98 126L72 0H44Z" />
<glyph unicode="l" horiz-adv-x="226" d="M86 -8Q71 -8 61 1T50 28Q50 33 51 40T54 54L188 722H216L82 52Q81 45 81 40T80 32Q80 18 94 18Q97 18 99 18T108 20L114 -2Q107 -5 101 -6T86 -8Z" />
<glyph unicode="m" horiz-adv-x="776" d="M44 0L140 478H164L152 400H156Q197 439 239 464T316 490Q376 490 400 460T426 388Q477 438 522 464T602 490Q662 490 688 458T714 374Q714 356 713 344T706 310L644 0H616L678 306Q683 329 684 342T686 370Q686 417 666
440T598 464Q574 464 529 439T430 358L358 0H330L392 306Q397 329 398 342T400 370Q400 417 380 440T312 464Q288 464 243 439T144 358L72 0H44Z" />
<glyph unicode="n" horiz-adv-x="504" d="M44 0L140 478H164L152 400H156Q198 439 241 464T328 490Q390 490 416 458T442 374Q442 356 441 344T434 310L372 0H344L406 306Q411 329 412 342T414 370Q414 417 393 440T324 464Q291 464 246 439T144 358L72 0H44Z" />
<glyph unicode="o" horiz-adv-x="500" d="M204 -12Q155 -12 120 10T65 74T46 176Q46 243 67 300T123 399T204 466T296 490Q345 490 380 468T435 404T454 302Q454 235 433 178T377 79T296 12T204 -12ZM206 14Q247 14 286 36T356 98T407 188T426 296Q426 379 392
421T294 464Q254 464 215 442T144 380T93 290T74 182Q74 100 108 57T206 14Z" />
<glyph unicode="p" horiz-adv-x="520" d="M0 -222L140 478H164L152 408H156Q195 440 240 465T336 490Q399 490 437 446T476 318Q476 249 455 189T396 84T312 14T216 -12Q173 -12 140 11T86 68H84L62 -42L28 -222H0ZM218 14Q263 14 304 39T378 107T429 203T448
312Q448 388 418 426T334 464Q292 464 241 438T146 370L92 102Q121 54 151 34T218 14Z" />
<glyph unicode="q" horiz-adv-x="520" d="M310 -222L346 -42L370 80H368Q329 40 283 14T186 -12Q123 -12 85 32T46 160Q46 229 67 289T126 394T210 464T306 490Q350 490 381 468T432 410H436L454 478H478L338 -222H310ZM188 14Q238 14 285 42T378 122L430 372Q402
422 371 443T304 464Q259 464 218 439T144 371T93 275T74 166Q74 90 105 52T188 14Z" />
<glyph unicode="r" horiz-adv-x="308" d="M44 0L140 478H164L148 388H152Q182 430 219 460T302 490Q311 490 322 489T344 482L332 456Q326 459 318 460T296 462Q257 462 213 425T136 322L72 0H44Z" />
<glyph unicode="s" horiz-adv-x="384" d="M158 -12Q123 -12 92 -1T37 31T0 76L20 88Q40 57 76 36T162 14Q197 14 226 28T274 66T292 122Q292 143 285 159T255 193T188 236Q137 265 109 294T80 362Q80 400 99 429T149 474T218 490Q259 490 293 475T352 430L334
414Q313 438 284 451T216 464Q170 464 139 435T108 368Q108 335 132 311T198 264Q249 237 275 216T310 173T320 128Q320 85 299 54T240 5T158 -12Z" />
<glyph unicode="t" horiz-adv-x="290" d="M168 -8Q116 -8 95 19T74 84Q74 96 75 106T78 128L146 452H70L76 474L152 478L188 636H212L180 478H312L306 452H174L106 126Q105 117 104 108T102 88Q102 54 116 36T170 18Q187 18 202 22T230 34L242 16Q229 7 211 0T168 -8Z" />
<glyph unicode="u" horiz-adv-x="504" d="M178 -12Q117 -12 91 20T64 104Q64 122 66 134T72 168L134 478H162L100 172Q96 150 94 137T92 108Q92 62 113 38T182 14Q215 14 260 39T362 120L434 478H462L366 0H342L354 80H350Q308 41 265 15T178 -12Z" />
<glyph unicode="v" horiz-adv-x="408" d="M136 0L58 478H86L136 166Q142 132 147 96T158 26H162Q180 61 199 96T238 166L408 478H438L174 0H136Z" />
<glyph unicode="w" horiz-adv-x="674" d="M112 0L68 478H96L124 154Q127 121 130 90T136 26H140Q155 58 169 89T198 154L348 478H388L412 154Q414 121 416 90T420 26H424Q439 58 453 89T484 154L638 478H666L438 0H396L374 312Q371 347 370 384T366 454H362Q347
421 331 384T298 312L154 0H112Z" />
<glyph unicode="x" horiz-adv-x="380" d="M-48 0L178 252L82 478H112L164 352Q173 330 180 312T196 272H200Q218 292 236 311T272 352L384 478H416L212 246L316 0H286L232 136Q223 159 213 182T192 228H188Q170 206 151 184T108 138L-14 0H-48Z" />
<glyph unicode="y" horiz-adv-x="408" d="M-40 -222Q-50 -222 -61 -220T-84 -212L-74 -190Q-59 -196 -38 -196Q7 -196 45 -157T116 -54L138 -10L58 478H86L136 166Q142 132 147 96T158 26H162Q180 61 199 96T238 166L408 478H438L138 -68Q114 -112 88 -147T30
-202T-40 -222Z" />
<glyph unicode="z" horiz-adv-x="384" d="M-10 0L-8 18L364 452H110L116 478H406L404 460L32 26H324L318 0H-10Z" />
<glyph unicode="{" horiz-adv-x="260" d="M130 -152Q87 -152 67 -135T46 -78Q46 -52 55 -13T76 69T97 150T106 214Q106 232 94 249T36 266L42 290Q77 290 97 302T126 333T140 372Q146 404 151 439T161 511T174 582Q184 632 200 659T240 697T300 708H332L328 686H296Q250
686 230 659T198 578Q189 533 182 483T166 384Q157 341 142 314T94 278V274Q118 264 124 250T130 220Q130 194 121 156T101 75T81 -6T72 -70Q72 -100 85 -115T136 -130H166L160 -152H130Z" />
<glyph unicode="|" horiz-adv-x="212" d="M100 -250V750H126V-250H100Z" />
<glyph unicode="}" horiz-adv-x="262" d="M-64 -152L-60 -130H-28Q19 -130 39 -103T70 -22Q79 23 86 73T102 172Q111 216 127 242T174 278V282Q150 292 144 306T138 336Q138 362 147 400T167 481T187 562T196 626Q196 656 183 671T132 686H102L108 708H138Q181
708 201 691T222 634Q222 608 213 569T192 487T171 406T162 342Q162 324 174 307T232 290L226 266Q191 266 171 254T142 223T128 184Q122 152 117 117T107 45T94 -26Q84 -76 68 -103T28 -141T-32 -152H-64Z" />
<glyph unicode="~" horiz-adv-x="456" d="M324 272Q297 272 274 286T231 318T190 350T150 364Q128 364 109 350T72 300L50 312Q70 351 96 370T150 390Q177 390 200 376T243 344T284 312T324 298Q347 298 365 313T402 362L424 350Q405 311 378 292T324 272Z" />
<glyph unicode="&#xa0;" horiz-adv-x="200" />
<glyph unicode="&#xa1;" horiz-adv-x="242" d="M24 -194L36 -130L124 306H148L52 -194H24ZM156 414Q143 414 137 423T130 446Q130 457 135 467T150 483T170 490Q184 490 191 481T198 460Q198 449 192 439T177 421T156 414Z" />
<glyph unicode="&#xa2;" horiz-adv-x="456" d="M244 102Q169 102 126 150T82 288Q82 351 103 401T158 486T234 539T316 558Q363 558 395 539T446 494L428 478Q407 502 382 517T314 532Q280 532 245 515T179 467T131 392T112 294Q112 218 145 173T246 128Q288 128
322 143T384 176L398 156Q370 138 334 120T244 102ZM196 -10L330 666H358L224 -10H196Z" />
<glyph unicode="&#xa3;" horiz-adv-x="456" d="M8 0L12 16Q89 57 124 124T160 268Q160 306 155 354T150 442Q150 508 172 555T235 627T330 652Q377 652 409 628T456 570L434 556Q419 586 393 606T328 626Q284 626 250 603T197 540T178 448Q178 410 183 364T188
274Q188 195 161 136T80 30V26H358L354 0H8ZM64 296L70 318L160 322H350L344 296H64Z" />
<glyph unicode="&#xa4;" horiz-adv-x="456" d="M30 132L14 152L89 218Q83 234 80 253T76 294Q76 340 93 381T138 453L90 518L110 534L157 471Q183 493 213 505T276 518Q308 518 333 506T376 471L450 536L466 516L389 448Q397 432 400 413T404 370Q404 327 389
288T348 218L404 144L384 128L330 199Q304 174 272 160T204 146Q170 146 145 158T102 195L30 132ZM206 172Q248 172 287 197T351 266T376 364Q376 426 350 459T274 492Q233 492 194 467T129 398T104 300Q104 238 130 205T206 172Z" />
<glyph unicode="&#xa5;" horiz-adv-x="456" d="M164 0L196 164H34L40 188H202L218 272H56L62 296H212L114 640H142L198 436Q207 403 216 369T234 296H238Q264 335 286 369T332 436L464 640H494L264 296H414L408 272H246L230 188H392L386 164H224L192 0H164Z" />
<glyph unicode="&#xa6;" horiz-adv-x="212" d="M100 274V750H126V274H100ZM100 -250V220H126V-250H100Z" />
<glyph unicode="&#xa7;" horiz-adv-x="454" d="M276 142L266 164Q322 182 351 207T380 286Q380 320 364 344T323 386T269 421T216 455T174 496T158 552Q158 592 175 620T222 664T288 680Q330 680 364 660T424 612L402 592Q380 619 351 636T286 654Q249 654 218
629T186 558Q186 529 202 508T243 470T297 437T350 401T392 355T408 292Q408 248 393 221T348 175T276 142ZM174 -44Q132 -44 95 -26T26 24L46 46Q73 16 106 -1T176 -18Q221 -18 254 11T288 86Q288 119 272 141T230 179T175 210T121 242T79 285T62 346Q62 408 99
446T194 502L202 480Q151 462 121 432T90 352Q90 319 106 296T148 257T203 225T257 193T299 152T316 92Q316 55 297 24T246 -25T174 -44Z" />
<glyph unicode="&#xa8;" horiz-adv-x="504" d="M254 602Q242 602 235 609T228 628Q228 645 238 655T260 666Q272 666 279 659T286 638Q286 623 276 613T254 602ZM420 602Q408 602 401 609T394 628Q394 645 404 655T426 666Q438 666 445 659T452 638Q452 623 442
613T420 602Z" />
<glyph unicode="&#xa9;" horiz-adv-x="660" d="M298 -12Q221 -12 163 23T73 120T40 264Q40 334 65 402T136 527T247 618T394 652Q471 652 529 617T619 520T652 376Q652 306 627 238T556 113T445 22T298 -12ZM300 12Q374 12 434 44T537 130T603 246T626 372Q626
450 597 507T516 596T392 628Q318 628 258 596T155 510T89 394T66 268Q66 190 95 133T176 44T300 12ZM318 130Q260 130 222 166T184 278Q184 333 202 376T249 450T313 497T382 514Q418 514 439 501T476 464L456 450Q441 470 424 479T380 488Q342 488 303 462T238
389T212 284Q212 220 241 188T320 156Q355 156 383 169T438 202L452 182Q422 160 392 145T318 130Z" />
<glyph unicode="&#xaa;" horiz-adv-x="346" d="M186 402Q144 402 118 431T92 518Q92 578 117 627T183 705T268 734Q292 734 313 723T348 684H352L364 726H384L322 410H300L310 462H306Q281 435 251 419T186 402ZM188 426Q218 426 252 447T314 500L344 652Q326
685 307 697T266 710Q229 710 195 683T140 612T118 522Q118 473 138 450T188 426Z" />
<glyph unicode="&#xab;" horiz-adv-x="372" d="M142 74L40 240L46 272L204 428L220 412L72 252L162 86L142 74ZM278 74L176 240L182 272L340 428L356 412L208 252L298 86L278 74Z" />
<glyph unicode="&#xac;" horiz-adv-x="456" d="M408 110V318H48V344H436V110H408Z" />
<glyph unicode="&#xad;" horiz-adv-x="282" d="M36 236L42 264H248L242 236H36Z" />
<glyph unicode="&#xae;" horiz-adv-x="376" d="M220 332Q178 332 143 352T87 408T66 494Q66 549 91 597T160 675T258 706Q300 706 335 686T391 629T412 544Q412 489 386 441T317 362T220 332ZM222 356Q266 356 303 381T363 448T386 540Q386 602 351 642T256 682Q211
682 174 657T115 589T92 498Q92 437 126 397T222 356ZM162 418L204 624H258Q287 624 302 610T318 566Q318 542 304 525T268 500L298 418H270L244 494H204L188 418H162ZM210 518H236Q262 518 277 530T292 564Q292 600 254 600H224L210 518Z" />
<glyph unicode="&#xaf;" horiz-adv-x="504" d="M218 610L222 636H454L450 610H218Z" />
<glyph unicode="&#xb0;" horiz-adv-x="284" d="M198 456Q159 456 133 483T106 554Q106 589 121 618T162 666T220 684Q259 684 285 657T312 586Q312 551 297 522T256 474T198 456ZM200 480Q226 480 245 495T275 533T286 582Q286 615 268 637T218 660Q192 660 173
645T143 607T132 558Q132 525 150 503T200 480Z" />
<glyph unicode="&#xb1;" horiz-adv-x="456" d="M228 110V318H48V344H228V546H256V344H436V318H256V110H228ZM48 0V26H436V0H48Z" />
<glyph unicode="&#xb2;" horiz-adv-x="344" d="M90 410L94 434Q186 501 240 547T319 632T344 712Q344 748 325 768T266 788Q241 788 216 772T170 732L152 750Q175 774 204 793T268 812Q316 812 344 786T372 714Q372 668 347 627T269 539T136 434H336L332 410H90Z" />
<glyph unicode="&#xb3;" horiz-adv-x="344" d="M210 398Q165 398 133 423T86 478L108 492Q123 464 147 443T212 422Q253 422 283 445T314 512Q314 547 283 573T190 600L196 624Q247 624 278 638T324 674T338 718Q338 750 318 769T262 788Q239 788 214 778T166
749L152 770Q178 791 206 801T264 812Q309 812 337 788T366 718Q366 682 339 651T266 608Q305 598 323 571T342 518Q342 480 324 453T275 412T210 398Z" />
<glyph unicode="&#xb4;" horiz-adv-x="504" d="M254 570L414 720H452L454 716L284 570H254Z" />
<glyph unicode="&#xb5;" horiz-adv-x="490" d="M6 -180L140 478H168L108 190Q104 169 101 148T98 112Q98 55 125 35T190 14Q213 14 238 24T296 64T368 150L434 478H462Q440 371 420 280T388 126T376 46Q376 28 382 23T398 18Q404 18 409 19T418 22L422 -2Q415
-5 410 -6T396 -8Q374 -8 362 3T350 42Q350 53 352 63T358 98H354Q314 41 271 15T188 -12Q151 -12 122 5T80 70Q68 10 61 -29T47 -103T34 -180H6Z" />
<glyph unicode="&#xb6;" horiz-adv-x="476" d="M288 -80L436 660H464L316 -80H288ZM300 248Q239 248 188 267T107 324T76 418Q76 478 97 523T156 599T239 644T334 660H386L302 248H300Z" />
<glyph unicode="&#xb7;" horiz-adv-x="202" d="M110 292Q97 292 90 301T82 322Q82 333 88 343T103 361T124 368Q138 368 144 359T150 336Q150 325 145 315T130 299T110 292Z" />
<glyph unicode="&#xb8;" horiz-adv-x="504" d="M92 -216L90 -192Q152 -190 183 -174T214 -132Q214 -109 197 -99T146 -86L202 2H230L188 -68Q223 -77 233 -90T244 -124Q244 -167 202 -190T92 -216Z" />
<glyph unicode="&#xb9;" horiz-adv-x="340" d="M206 410L272 744H180L184 764Q222 770 244 777T288 800H310L232 410H206Z" />
<glyph unicode="&#xba;" horiz-adv-x="340" d="M200 402Q149 402 121 435T92 526Q92 589 117 636T182 708T264 734Q315 734 343 702T372 610Q372 547 347 500T282 428T200 402ZM202 426Q239 426 272 451T325 517T346 606Q346 656 325 683T262 710Q225 710 192
685T139 619T118 530Q118 481 140 454T202 426Z" />
<glyph unicode="&#xbb;" horiz-adv-x="372" d="M36 74L20 90L168 250L78 416L98 428L200 262L194 230L36 74ZM172 74L156 90L304 250L214 416L234 428L336 262L330 230L172 74Z" />
<glyph unicode="&#xbc;" horiz-adv-x="724" d="M156 270L222 604H130L134 624Q172 630 194 637T238 660H260L182 270H156ZM120 -12L612 672H642L150 -12H120ZM544 0L592 242L616 340H612L540 258L438 144H656L650 120H398L402 138L630 390H648L570 0H544Z" />
<glyph unicode="&#xbd;" horiz-adv-x="740" d="M152 270L218 604H126L130 624Q168 630 190 637T234 660H256L178 270H152ZM90 -12L582 672H612L120 -12H90ZM402 0L406 24Q498 91 552 137T631 222T656 302Q656 338 637 358T578 378Q553 378 528 362T482 322L464
340Q487 364 516 383T580 402Q628 402 656 376T684 304Q684 258 659 217T581 129T448 24H648L644 0H402Z" />
<glyph unicode="&#xbe;" horiz-adv-x="744" d="M176 258Q131 258 99 283T52 338L74 352Q89 324 113 303T178 282Q219 282 249 305T280 372Q280 407 249 433T156 460L162 484Q213 484 244 498T290 534T304 578Q304 610 284 629T228 648Q205 648 180 638T132 609L118
630Q144 651 172 661T230 672Q275 672 303 648T332 578Q332 542 305 511T232 468Q271 458 289 431T308 378Q308 340 290 313T241 272T176 258ZM162 -12L654 672H684L192 -12H162ZM566 0L614 242L638 340H634L562 258L460 144H678L672 120H420L424 138L652 390H670L592
0H566Z" />
<glyph unicode="&#xbf;" horiz-adv-x="380" d="M122 -202Q62 -202 28 -168T-6 -74Q-6 -24 15 14T67 84T131 149T185 219T210 306L236 304Q234 251 212 212T159 139T96 76T43 11T22 -68Q22 -119 49 -147T124 -176Q160 -176 194 -159T252 -114L270 -134Q246 -161
207 -181T122 -202ZM240 416Q227 416 221 425T214 448Q214 459 219 469T234 485T254 492Q268 492 275 483T282 462Q282 451 276 441T261 423T240 416Z" />
<glyph unicode="&#xc0;" horiz-adv-x="480" d="M-42 0L320 660H350L434 0H404L356 396Q350 452 343 509T330 626H326Q296 565 266 510T204 396L-12 0H-42ZM104 238L112 264H392L386 238H104ZM380 710L240 826L242 830H284L410 710H380Z" />
<glyph unicode="&#xc1;" horiz-adv-x="480" d="M-42 0L320 660H350L434 0H404L356 396Q350 452 343 509T330 626H326Q296 565 266 510T204 396L-12 0H-42ZM104 238L112 264H392L386 238H104ZM260 710L420 830H468L470 826L294 710H260Z" />
<glyph unicode="&#xc2;" horiz-adv-x="480" d="M-42 0L320 660H350L434 0H404L356 396Q350 452 343 509T330 626H326Q296 565 266 510T204 396L-12 0H-42ZM104 238L112 264H392L386 238H104ZM190 712L350 832H370L480 712H450L360 802H356L224 712H190Z" />
<glyph unicode="&#xc3;" horiz-adv-x="480" d="M-42 0L320 660H350L434 0H404L356 396Q350 452 343 509T330 626H326Q296 565 266 510T204 396L-12 0H-42ZM104 238L112 264H392L386 238H104ZM416 722Q391 722 374 734T344 764T317 793T282 806Q259 806 240 784T210
724L188 726Q196 771 222 801T288 832Q314 832 330 820T360 790T387 761T422 748Q445 748 463 770T494 830L516 828Q509 783 482 753T416 722Z" />
<glyph unicode="&#xc4;" horiz-adv-x="480" d="M-42 0L320 660H350L434 0H404L356 396Q350 452 343 509T330 626H326Q296 565 266 510T204 396L-12 0H-42ZM104 238L112 264H392L386 238H104ZM254 726Q242 726 235 733T228 752Q228 769 238 779T260 790Q272 790
279 783T286 762Q286 747 276 737T254 726ZM436 726Q424 726 417 733T410 752Q410 769 420 779T442 790Q454 790 461 783T468 762Q468 747 458 737T436 726Z" />
<glyph unicode="&#xc5;" horiz-adv-x="480" d="M-42 0L320 660H350L434 0H404L356 396Q350 452 343 509T330 626H326Q296 565 266 510T204 396L-12 0H-42ZM104 238L112 264H392L386 238H104ZM342 702Q312 702 288 720T264 774Q264 813 294 839T364 866Q394 866
418 848T442 794Q442 755 412 729T342 702ZM344 724Q373 724 394 744T416 792Q416 818 401 831T362 844Q334 844 312 825T290 776Q290 751 305 738T344 724Z" />
<glyph unicode="&#xc6;" horiz-adv-x="774" d="M-32 0L458 660H804L798 634H500L446 364H696L690 338H442L378 26H686L680 0H344L470 632H466Q423 572 380 512T292 392L4 0H-32ZM152 226L160 252H418L410 226H152Z" />
<glyph unicode="&#xc7;" horiz-adv-x="536" d="M278 -12Q204 -12 155 22T82 114T58 246Q58 304 72 364T114 479T182 577T275 646T390 672Q446 672 486 645T542 576L520 566Q502 604 469 625T388 646Q330 646 283 622T200 556T138 464T101 357T88 252Q88 185 108
131T170 46T280 14Q328 14 369 31T444 78L458 62Q418 26 375 7T278 -12ZM152 -216L150 -192Q212 -190 243 -174T274 -132Q274 -109 257 -99T206 -86L262 2H290L248 -68Q283 -77 293 -90T304 -124Q304 -167 262 -190T152 -216Z" />
<glyph unicode="&#xc8;" horiz-adv-x="484" d="M40 0L172 660H514L508 634H196L142 364H406L400 338H138L74 26H396L390 0H40ZM400 710L260 826L262 830H304L430 710H400Z" />
<glyph unicode="&#xc9;" horiz-adv-x="484" d="M40 0L172 660H514L508 634H196L142 364H406L400 338H138L74 26H396L390 0H40ZM280 710L440 830H488L490 826L314 710H280Z" />
<glyph unicode="&#xca;" horiz-adv-x="484" d="M40 0L172 660H514L508 634H196L142 364H406L400 338H138L74 26H396L390 0H40ZM210 712L370 832H390L500 712H470L380 802H376L244 712H210Z" />
<glyph unicode="&#xcb;" horiz-adv-x="484" d="M40 0L172 660H514L508 634H196L142 364H406L400 338H138L74 26H396L390 0H40ZM274 726Q262 726 255 733T248 752Q248 769 258 779T280 790Q292 790 299 783T306 762Q306 747 296 737T274 726ZM456 726Q444 726 437
733T430 752Q430 769 440 779T462 790Q474 790 481 783T488 762Q488 747 478 737T456 726Z" />
<glyph unicode="&#xcc;" horiz-adv-x="212" d="M40 0L172 660H202L70 0H40ZM240 710L100 826L102 830H144L270 710H240Z" />
<glyph unicode="&#xcd;" horiz-adv-x="212" d="M40 0L172 660H202L70 0H40ZM120 710L280 830H328L330 826L154 710H120Z" />
<glyph unicode="&#xce;" horiz-adv-x="212" d="M40 0L172 660H202L70 0H40ZM50 712L210 832H230L340 712H310L220 802H216L84 712H50Z" />
<glyph unicode="&#xcf;" horiz-adv-x="212" d="M40 0L172 660H202L70 0H40ZM114 726Q102 726 95 733T88 752Q88 769 98 779T120 790Q132 790 139 783T146 762Q146 747 136 737T114 726ZM296 726Q284 726 277 733T270 752Q270 769 280 779T302 790Q314 790 321
783T328 762Q328 747 318 737T296 726Z" />
<glyph unicode="&#xd0;" horiz-adv-x="592" d="M54 338L60 360L134 364H332L326 338H54ZM60 0L192 660H296Q387 660 447 628T536 538T566 404Q566 320 544 247T477 118T367 32T214 0H60ZM94 26H216Q293 26 352 56T453 139T515 259T536 402Q536 470 510 522T430
604T294 634H216L94 26Z" />
<glyph unicode="&#xd1;" horiz-adv-x="600" d="M40 0L172 660H206L386 182Q394 161 402 139T419 93T436 46H440Q448 94 456 139T474 230L560 660H590L458 0H426L244 484Q232 516 219 551T194 620H190Q183 572 174 527T156 436L70 0H40ZM476 722Q451 722 434 734T404
764T377 793T342 806Q319 806 300 784T270 724L248 726Q256 771 282 801T348 832Q374 832 390 820T420 790T447 761T482 748Q505 748 523 770T554 830L576 828Q569 783 542 753T476 722Z" />
<glyph unicode="&#xd2;" horiz-adv-x="612" d="M274 -12Q202 -12 155 23T85 120T62 262Q62 315 75 372T114 482T177 578T264 646T372 672Q444 672 491 637T561 540T584 398Q584 345 571 288T532 178T469 82T382 14T274 -12ZM276 14Q330 14 374 38T451 102T508
193T542 295T554 394Q554 468 535 525T476 614T370 646Q316 646 272 622T195 558T138 467T104 365T92 266Q92 192 111 135T170 46T276 14ZM450 710L310 826L312 830H354L480 710H450Z" />
<glyph unicode="&#xd3;" horiz-adv-x="612" d="M274 -12Q202 -12 155 23T85 120T62 262Q62 315 75 372T114 482T177 578T264 646T372 672Q444 672 491 637T561 540T584 398Q584 345 571 288T532 178T469 82T382 14T274 -12ZM276 14Q330 14 374 38T451 102T508
193T542 295T554 394Q554 468 535 525T476 614T370 646Q316 646 272 622T195 558T138 467T104 365T92 266Q92 192 111 135T170 46T276 14ZM330 710L490 830H538L540 826L364 710H330Z" />
<glyph unicode="&#xd4;" horiz-adv-x="612" d="M274 -12Q202 -12 155 23T85 120T62 262Q62 315 75 372T114 482T177 578T264 646T372 672Q444 672 491 637T561 540T584 398Q584 345 571 288T532 178T469 82T382 14T274 -12ZM276 14Q330 14 374 38T451 102T508
193T542 295T554 394Q554 468 535 525T476 614T370 646Q316 646 272 622T195 558T138 467T104 365T92 266Q92 192 111 135T170 46T276 14ZM260 712L420 832H440L550 712H520L430 802H426L294 712H260Z" />
<glyph unicode="&#xd5;" horiz-adv-x="612" d="M274 -12Q202 -12 155 23T85 120T62 262Q62 315 75 372T114 482T177 578T264 646T372 672Q444 672 491 637T561 540T584 398Q584 345 571 288T532 178T469 82T382 14T274 -12ZM276 14Q330 14 374 38T451 102T508
193T542 295T554 394Q554 468 535 525T476 614T370 646Q316 646 272 622T195 558T138 467T104 365T92 266Q92 192 111 135T170 46T276 14ZM486 722Q461 722 444 734T414 764T387 793T352 806Q329 806 310 784T280 724L258 726Q266 771 292 801T358 832Q384 832
400 820T430 790T457 761T492 748Q515 748 533 770T564 830L586 828Q579 783 552 753T486 722Z" />
<glyph unicode="&#xd6;" horiz-adv-x="612" d="M274 -12Q202 -12 155 23T85 120T62 262Q62 315 75 372T114 482T177 578T264 646T372 672Q444 672 491 637T561 540T584 398Q584 345 571 288T532 178T469 82T382 14T274 -12ZM276 14Q330 14 374 38T451 102T508
193T542 295T554 394Q554 468 535 525T476 614T370 646Q316 646 272 622T195 558T138 467T104 365T92 266Q92 192 111 135T170 46T276 14ZM324 726Q312 726 305 733T298 752Q298 769 308 779T330 790Q342 790 349 783T356 762Q356 747 346 737T324 726ZM506 726Q494
726 487 733T480 752Q480 769 490 779T512 790Q524 790 531 783T538 762Q538 747 528 737T506 726Z" />
<glyph unicode="&#xd7;" horiz-adv-x="456" d="M84 148L66 166L224 332L66 496L84 514L242 350L400 514L418 496L260 332L418 166L400 148L242 314L84 148Z" />
<glyph unicode="&#xd8;" horiz-adv-x="612" d="M24 -22L2 -4L626 678L642 660L24 -22ZM274 -12Q202 -12 155 23T85 120T62 262Q62 315 75 372T114 482T177 578T264 646T372 672Q444 672 491 637T561 540T584 398Q584 345 571 288T532 178T469 82T382 14T274 -12ZM276
14Q330 14 374 38T451 102T508 193T542 295T554 394Q554 468 535 525T476 614T370 646Q316 646 272 622T195 558T138 467T104 365T92 266Q92 192 111 135T170 46T276 14Z" />
<glyph unicode="&#xd9;" horiz-adv-x="594" d="M268 -12Q181 -12 132 38T82 180Q82 200 84 219T90 262L170 660H200L122 270Q116 246 114 226T112 188Q112 106 152 60T272 14Q316 14 355 34T425 103T472 238L556 660H586L500 230Q481 135 446 83T365 9T268 -12ZM430
710L290 826L292 830H334L460 710H430Z" />
<glyph unicode="&#xda;" horiz-adv-x="594" d="M268 -12Q181 -12 132 38T82 180Q82 200 84 219T90 262L170 660H200L122 270Q116 246 114 226T112 188Q112 106 152 60T272 14Q316 14 355 34T425 103T472 238L556 660H586L500 230Q481 135 446 83T365 9T268 -12ZM310
710L470 830H518L520 826L344 710H310Z" />
<glyph unicode="&#xdb;" horiz-adv-x="594" d="M268 -12Q181 -12 132 38T82 180Q82 200 84 219T90 262L170 660H200L122 270Q116 246 114 226T112 188Q112 106 152 60T272 14Q316 14 355 34T425 103T472 238L556 660H586L500 230Q481 135 446 83T365 9T268 -12ZM240
712L400 832H420L530 712H500L410 802H406L274 712H240Z" />
<glyph unicode="&#xdc;" horiz-adv-x="594" d="M268 -12Q181 -12 132 38T82 180Q82 200 84 219T90 262L170 660H200L122 270Q116 246 114 226T112 188Q112 106 152 60T272 14Q316 14 355 34T425 103T472 238L556 660H586L500 230Q481 135 446 83T365 9T268 -12ZM304
726Q292 726 285 733T278 752Q278 769 288 779T310 790Q322 790 329 783T336 762Q336 747 326 737T304 726ZM486 726Q474 726 467 733T460 752Q460 769 470 779T492 790Q504 790 511 783T518 762Q518 747 508 737T486 726Z" />
<glyph unicode="&#xdd;" horiz-adv-x="422" d="M140 0L195 273L86 660H116L175 445Q185 409 194 374T214 302H216Q241 337 265 373T315 445L466 660H498L225 273L170 0H140ZM224 710L384 830H432L434 826L258 710H224Z" />
<glyph unicode="&#xde;" horiz-adv-x="536" d="M40 0L172 660H202L178 536H314Q374 536 417 520T483 471T506 386Q506 332 487 292T432 224T345 184T230 170H104L70 0H40ZM110 196H224Q349 196 412 243T476 384Q476 452 431 481T296 510H172L110 196Z" />
<glyph unicode="&#xdf;" horiz-adv-x="512" d="M310 -12Q276 -12 241 1T178 42L194 60Q220 38 249 26T312 14Q344 14 371 28T415 67T432 124Q432 159 417 183T379 227T334 264T296 303T280 356Q280 391 296 416T335 463T382 505T422 553T438 616Q438 655 416 681T344
708Q303 708 269 684T212 620T178 530L72 0H44L152 540Q163 592 189 636T256 707T346 734Q383 734 410 721T451 681T466 616Q466 576 450 547T411 496T364 454T324 412T308 362Q308 333 323 313T361 276T406 239T444 194T460 130Q460 91 441 59T388 8T310 -12Z"
/>
<glyph unicode="&#xe0;" horiz-adv-x="524" d="M186 -12Q123 -12 85 32T46 160Q46 229 67 289T126 394T210 464T306 490Q350 490 381 468T432 410H436L454 478H478L382 0H358L370 78H366Q329 39 283 14T186 -12ZM188 14Q238 14 285 42T378 122L430 372Q402 422
371 443T304 464Q259 464 218 439T144 371T93 275T74 166Q74 90 105 52T188 14ZM374 570L250 716L252 720H284L400 570H374Z" />
<glyph unicode="&#xe1;" horiz-adv-x="524" d="M186 -12Q123 -12 85 32T46 160Q46 229 67 289T126 394T210 464T306 490Q350 490 381 468T432 410H436L454 478H478L382 0H358L370 78H366Q329 39 283 14T186 -12ZM188 14Q238 14 285 42T378 122L430 372Q402 422
371 443T304 464Q259 464 218 439T144 371T93 275T74 166Q74 90 105 52T188 14ZM250 570L410 720H448L450 716L280 570H250Z" />
<glyph unicode="&#xe2;" horiz-adv-x="524" d="M186 -12Q123 -12 85 32T46 160Q46 229 67 289T126 394T210 464T306 490Q350 490 381 468T432 410H436L454 478H478L382 0H358L370 78H366Q329 39 283 14T186 -12ZM188 14Q238 14 285 42T378 122L430 372Q402 422
371 443T304 464Q259 464 218 439T144 371T93 275T74 166Q74 90 105 52T188 14ZM180 570L340 724H360L460 570H434L348 690H344L210 570H180Z" />
<glyph unicode="&#xe3;" horiz-adv-x="524" d="M186 -12Q123 -12 85 32T46 160Q46 229 67 289T126 394T210 464T306 490Q350 490 381 468T432 410H436L454 478H478L382 0H358L370 78H366Q329 39 283 14T186 -12ZM188 14Q238 14 285 42T378 122L430 372Q402 422
371 443T304 464Q259 464 218 439T144 371T93 275T74 166Q74 90 105 52T188 14ZM408 580Q381 580 365 595T338 631T312 666T276 682Q248 682 231 653T204 582L178 584Q185 613 197 641T229 687T280 706Q307 706 323 691T350 655T376 620T412 604Q441 604 458 634T484
704L510 702Q503 674 491 646T459 599T408 580Z" />
<glyph unicode="&#xe4;" horiz-adv-x="524" d="M186 -12Q123 -12 85 32T46 160Q46 229 67 289T126 394T210 464T306 490Q350 490 381 468T432 410H436L454 478H478L382 0H358L370 78H366Q329 39 283 14T186 -12ZM188 14Q238 14 285 42T378 122L430 372Q402 422
371 443T304 464Q259 464 218 439T144 371T93 275T74 166Q74 90 105 52T188 14ZM250 602Q238 602 231 609T224 628Q224 645 234 655T256 666Q268 666 275 659T282 638Q282 623 272 613T250 602ZM416 602Q404 602 397 609T390 628Q390 645 400 655T422 666Q434 666
441 659T448 638Q448 623 438 613T416 602Z" />
<glyph unicode="&#xe5;" horiz-adv-x="524" d="M186 -12Q123 -12 85 32T46 160Q46 229 67 289T126 394T210 464T306 490Q350 490 381 468T432 410H436L454 478H478L382 0H358L370 78H366Q329 39 283 14T186 -12ZM188 14Q238 14 285 42T378 122L430 372Q402 422
371 443T304 464Q259 464 218 439T144 371T93 275T74 166Q74 90 105 52T188 14ZM326 548Q295 548 271 568T246 628Q246 670 274 701T348 732Q379 732 403 712T428 652Q428 610 400 579T326 548ZM328 570Q358 570 380 593T402 650Q402 677 386 693T346 710Q316 710
294 687T272 630Q272 603 288 587T328 570Z" />
<glyph unicode="&#xe6;" horiz-adv-x="766" d="M158 -12Q112 -12 76 16T40 102Q40 168 81 209T196 270T370 294Q375 314 376 327T378 356Q378 407 356 435T280 464Q249 464 210 451T138 418L124 440Q157 460 199 475T282 490Q336 490 369 461T406 372Q441 426
489 458T588 490Q639 490 670 469T716 409T730 322Q730 306 729 292T724 265T718 242H390Q377 176 390 125T438 44T522 14Q563 14 592 26T648 58L662 40Q635 19 601 4T520 -12Q468 -12 427 19T370 96Q319 45 266 17T158 -12ZM164 14Q203 14 255 40T362 122Q356
164 357 196T366 268Q277 266 210 249T106 196T68 108Q68 62 96 38T164 14ZM396 268H696Q699 283 700 297T702 328Q702 362 691 393T655 444T586 464Q547 464 508 439T439 369T396 268Z" />
<glyph unicode="&#xe7;" horiz-adv-x="428" d="M210 -12Q159 -12 122 10T64 74T44 176Q44 247 66 304T124 403T206 467T298 490Q340 490 369 475T418 432L400 418Q381 442 357 453T296 464Q254 464 214 442T142 380T91 290T72 182Q72 100 107 57T212 14Q247 14
283 29T344 64L358 46Q334 25 296 7T210 -12ZM82 -216L80 -192Q142 -190 173 -174T204 -132Q204 -109 187 -99T136 -86L192 2H220L178 -68Q213 -77 223 -90T234 -124Q234 -167 192 -190T82 -216Z" />
<glyph unicode="&#xe8;" horiz-adv-x="468" d="M224 -12Q142 -12 93 38T44 184Q44 252 65 308T121 404T200 467T290 490Q341 490 372 469T418 409T432 322Q432 306 431 292T426 265T420 242H68L74 268H398Q401 283 402 297T404 328Q404 362 393 393T357 444T288
464Q248 464 210 443T140 385T91 296T72 186Q72 123 93 86T150 31T226 14Q264 14 293 26T350 58L364 40Q337 19 303 4T224 -12ZM354 570L230 716L232 720H264L380 570H354Z" />
<glyph unicode="&#xe9;" horiz-adv-x="468" d="M224 -12Q142 -12 93 38T44 184Q44 252 65 308T121 404T200 467T290 490Q341 490 372 469T418 409T432 322Q432 306 431 292T426 265T420 242H68L74 268H398Q401 283 402 297T404 328Q404 362 393 393T357 444T288
464Q248 464 210 443T140 385T91 296T72 186Q72 123 93 86T150 31T226 14Q264 14 293 26T350 58L364 40Q337 19 303 4T224 -12ZM230 570L390 720H428L430 716L260 570H230Z" />
<glyph unicode="&#xea;" horiz-adv-x="468" d="M224 -12Q142 -12 93 38T44 184Q44 252 65 308T121 404T200 467T290 490Q341 490 372 469T418 409T432 322Q432 306 431 292T426 265T420 242H68L74 268H398Q401 283 402 297T404 328Q404 362 393 393T357 444T288
464Q248 464 210 443T140 385T91 296T72 186Q72 123 93 86T150 31T226 14Q264 14 293 26T350 58L364 40Q337 19 303 4T224 -12ZM160 570L320 724H340L440 570H414L328 690H324L190 570H160Z" />
<glyph unicode="&#xeb;" horiz-adv-x="468" d="M224 -12Q142 -12 93 38T44 184Q44 252 65 308T121 404T200 467T290 490Q341 490 372 469T418 409T432 322Q432 306 431 292T426 265T420 242H68L74 268H398Q401 283 402 297T404 328Q404 362 393 393T357 444T288
464Q248 464 210 443T140 385T91 296T72 186Q72 123 93 86T150 31T226 14Q264 14 293 26T350 58L364 40Q337 19 303 4T224 -12ZM230 602Q218 602 211 609T204 628Q204 645 214 655T236 666Q248 666 255 659T262 638Q262 623 252 613T230 602ZM396 602Q384 602 377
609T370 628Q370 645 380 655T402 666Q414 666 421 659T428 638Q428 623 418 613T396 602Z" />
<glyph unicode="&#xec;" horiz-adv-x="214" d="M44 0L140 478H168L72 0H44ZM224 570L100 716L102 720H134L250 570H224Z" />
<glyph unicode="&#xed;" horiz-adv-x="214" d="M44 0L140 478H168L72 0H44ZM100 570L260 720H298L300 716L130 570H100Z" />
<glyph unicode="&#xee;" horiz-adv-x="214" d="M44 0L140 478H168L72 0H44ZM30 570L190 724H210L310 570H284L198 690H194L60 570H30Z" />
<glyph unicode="&#xef;" horiz-adv-x="214" d="M44 0L140 478H168L72 0H44ZM100 602Q88 602 81 609T74 628Q74 645 84 655T106 666Q118 666 125 659T132 638Q132 623 122 613T100 602ZM266 602Q254 602 247 609T240 628Q240 645 250 655T272 666Q284 666 291 659T298
638Q298 623 288 613T266 602Z" />
<glyph unicode="&#xf0;" horiz-adv-x="514" d="M210 -12Q163 -12 127 12T71 76T50 164Q50 217 66 266T114 355T188 417T284 440Q329 440 367 412T432 340L424 310Q400 349 366 381T282 414Q221 414 175 379T104 287T78 168Q78 127 94 92T141 36T216 14Q262 14
299 40T364 112T405 214T420 334Q420 428 396 495T325 611T206 702L222 722Q294 682 344 630T421 507T448 340Q448 242 418 162T335 35T210 -12ZM188 526L180 548L494 682L502 660L188 526Z" />
<glyph unicode="&#xf1;" horiz-adv-x="504" d="M44 0L140 478H164L152 400H156Q198 439 241 464T328 490Q390 490 416 458T442 374Q442 356 441 344T434 310L372 0H344L406 306Q411 329 412 342T414 370Q414 417 393 440T324 464Q291 464 246 439T144 358L72 0H44ZM414
580Q387 580 371 595T344 631T318 666T282 682Q254 682 237 653T210 582L184 584Q191 613 203 641T235 687T286 706Q313 706 329 691T356 655T382 620T418 604Q447 604 464 634T490 704L516 702Q509 674 497 646T465 599T414 580Z" />
<glyph unicode="&#xf2;" horiz-adv-x="500" d="M204 -12Q155 -12 120 10T65 74T46 176Q46 243 67 300T123 399T204 466T296 490Q345 490 380 468T435 404T454 302Q454 235 433 178T377 79T296 12T204 -12ZM206 14Q247 14 286 36T356 98T407 188T426 296Q426 379
392 421T294 464Q254 464 215 442T144 380T93 290T74 182Q74 100 108 57T206 14ZM374 570L250 716L252 720H284L400 570H374Z" />
<glyph unicode="&#xf3;" horiz-adv-x="500" d="M204 -12Q155 -12 120 10T65 74T46 176Q46 243 67 300T123 399T204 466T296 490Q345 490 380 468T435 404T454 302Q454 235 433 178T377 79T296 12T204 -12ZM206 14Q247 14 286 36T356 98T407 188T426 296Q426 379
392 421T294 464Q254 464 215 442T144 380T93 290T74 182Q74 100 108 57T206 14ZM250 570L410 720H448L450 716L280 570H250Z" />
<glyph unicode="&#xf4;" horiz-adv-x="500" d="M204 -12Q155 -12 120 10T65 74T46 176Q46 243 67 300T123 399T204 466T296 490Q345 490 380 468T435 404T454 302Q454 235 433 178T377 79T296 12T204 -12ZM206 14Q247 14 286 36T356 98T407 188T426 296Q426 379
392 421T294 464Q254 464 215 442T144 380T93 290T74 182Q74 100 108 57T206 14ZM180 570L340 724H360L460 570H434L348 690H344L210 570H180Z" />
<glyph unicode="&#xf5;" horiz-adv-x="500" d="M204 -12Q155 -12 120 10T65 74T46 176Q46 243 67 300T123 399T204 466T296 490Q345 490 380 468T435 404T454 302Q454 235 433 178T377 79T296 12T204 -12ZM206 14Q247 14 286 36T356 98T407 188T426 296Q426 379
392 421T294 464Q254 464 215 442T144 380T93 290T74 182Q74 100 108 57T206 14ZM408 580Q381 580 365 595T338 631T312 666T276 682Q248 682 231 653T204 582L178 584Q185 613 197 641T229 687T280 706Q307 706 323 691T350 655T376 620T412 604Q441 604 458 634T484
704L510 702Q503 674 491 646T459 599T408 580Z" />
<glyph unicode="&#xf6;" horiz-adv-x="500" d="M204 -12Q155 -12 120 10T65 74T46 176Q46 243 67 300T123 399T204 466T296 490Q345 490 380 468T435 404T454 302Q454 235 433 178T377 79T296 12T204 -12ZM206 14Q247 14 286 36T356 98T407 188T426 296Q426 379
392 421T294 464Q254 464 215 442T144 380T93 290T74 182Q74 100 108 57T206 14ZM250 602Q238 602 231 609T224 628Q224 645 234 655T256 666Q268 666 275 659T282 638Q282 623 272 613T250 602ZM416 602Q404 602 397 609T390 628Q390 645 400 655T422 666Q434
666 441 659T448 638Q448 623 438 613T416 602Z" />
<glyph unicode="&#xf7;" horiz-adv-x="456" d="M48 318V344H436V318H48ZM242 114Q229 114 221 124T212 148Q212 162 220 171T242 180Q256 180 264 171T272 148Q272 135 264 125T242 114ZM242 478Q229 478 221 488T212 512Q212 526 220 535T242 544Q256 544 264
535T272 512Q272 499 264 489T242 478Z" />
<glyph unicode="&#xf8;" horiz-adv-x="500" d="M204 -12Q155 -12 120 10T65 74T46 176Q46 243 67 300T123 399T204 466T296 490Q345 490 380 468T435 404T454 302Q454 235 433 178T377 79T296 12T204 -12ZM206 14Q247 14 286 36T356 98T407 188T426 296Q426 379
392 421T294 464Q254 464 215 442T144 380T93 290T74 182Q74 100 108 57T206 14ZM18 -22L0 -4L488 498L506 480L18 -22Z" />
<glyph unicode="&#xf9;" horiz-adv-x="504" d="M178 -12Q117 -12 91 20T64 104Q64 122 66 134T72 168L134 478H162L100 172Q96 150 94 137T92 108Q92 62 113 38T182 14Q215 14 260 39T362 120L434 478H462L366 0H342L354 80H350Q308 41 265 15T178 -12ZM374 570L250
716L252 720H284L400 570H374Z" />
<glyph unicode="&#xfa;" horiz-adv-x="504" d="M178 -12Q117 -12 91 20T64 104Q64 122 66 134T72 168L134 478H162L100 172Q96 150 94 137T92 108Q92 62 113 38T182 14Q215 14 260 39T362 120L434 478H462L366 0H342L354 80H350Q308 41 265 15T178 -12ZM250 570L410
720H448L450 716L280 570H250Z" />
<glyph unicode="&#xfb;" horiz-adv-x="504" d="M178 -12Q117 -12 91 20T64 104Q64 122 66 134T72 168L134 478H162L100 172Q96 150 94 137T92 108Q92 62 113 38T182 14Q215 14 260 39T362 120L434 478H462L366 0H342L354 80H350Q308 41 265 15T178 -12ZM180 570L340
724H360L460 570H434L348 690H344L210 570H180Z" />
<glyph unicode="&#xfc;" horiz-adv-x="504" d="M178 -12Q117 -12 91 20T64 104Q64 122 66 134T72 168L134 478H162L100 172Q96 150 94 137T92 108Q92 62 113 38T182 14Q215 14 260 39T362 120L434 478H462L366 0H342L354 80H350Q308 41 265 15T178 -12ZM250 602Q238
602 231 609T224 628Q224 645 234 655T256 666Q268 666 275 659T282 638Q282 623 272 613T250 602ZM416 602Q404 602 397 609T390 628Q390 645 400 655T422 666Q434 666 441 659T448 638Q448 623 438 613T416 602Z" />
<glyph unicode="&#xfd;" horiz-adv-x="408" d="M-40 -222Q-50 -222 -61 -220T-84 -212L-74 -190Q-59 -196 -38 -196Q7 -196 45 -157T116 -54L138 -10L58 478H86L136 166Q142 132 147 96T158 26H162Q180 61 199 96T238 166L408 478H438L138 -68Q114 -112 88 -147T30
-202T-40 -222ZM184 570L344 720H382L384 716L214 570H184Z" />
<glyph unicode="&#xfe;" horiz-adv-x="520" d="M0 -222L188 722H216L172 506L152 408H154Q193 440 239 465T336 490Q399 490 437 446T476 318Q476 249 455 189T396 84T312 14T216 -12Q173 -12 141 11T86 68H84L62 -42L28 -222H0ZM218 14Q263 14 304 39T378 107T429
203T448 312Q448 388 418 426T334 464Q292 464 241 438T146 372L92 102Q121 54 151 34T218 14Z" />
<glyph unicode="&#xff;" horiz-adv-x="408" d="M-40 -222Q-50 -222 -61 -220T-84 -212L-74 -190Q-59 -196 -38 -196Q7 -196 45 -157T116 -54L138 -10L58 478H86L136 166Q142 132 147 96T158 26H162Q180 61 199 96T238 166L408 478H438L138 -68Q114 -112 88 -147T30
-202T-40 -222ZM184 602Q172 602 165 609T158 628Q158 645 168 655T190 666Q202 666 209 659T216 638Q216 623 206 613T184 602ZM350 602Q338 602 331 609T324 628Q324 645 334 655T356 666Q368 666 375 659T382 638Q382 623 372 613T350 602Z" />
<glyph unicode="&#x2013;" horiz-adv-x="462" d="M36 238L42 264H426L418 238H36Z" />
<glyph unicode="&#x2014;" horiz-adv-x="768" d="M36 238L42 264H732L726 238H36Z" />
<glyph unicode="&#x2018;" horiz-adv-x="202" d="M156 500Q141 500 131 511T120 544Q120 579 132 609T167 663T220 704L232 684Q206 668 188 649T161 608T152 564L158 514L132 554Q138 562 145 564T156 566Q170 566 179 559T188 536Q188 521 179 511T156 500Z" />
<glyph unicode="&#x2019;" horiz-adv-x="202" d="M126 496L114 516Q140 532 158 551T185 592T194 636L188 686L214 646Q208 639 202 637T190 634Q177 634 168 641T158 664Q158 679 167 689T190 700Q205 700 215 689T226 656Q226 621 214 591T179 537T126 496Z" />
<glyph unicode="&#x201a;" horiz-adv-x="202" d="M-6 -142L-18 -122Q8 -106 26 -87T53 -46T62 -2L56 48L82 8Q76 1 70 -1T58 -4Q45 -4 36 3T26 26Q26 41 35 51T58 62Q73 62 83 51T94 18Q94 -17 82 -47T47 -101T-6 -142Z" />
<glyph unicode="&#x201c;" horiz-adv-x="324" d="M156 500Q141 500 131 511T120 544Q120 579 132 609T167 663T220 704L232 684Q206 668 188 649T161 608T152 564L158 514L132 554Q138 562 145 564T156 566Q170 566 179 559T188 536Q188 521 179 511T156 500ZM278
500Q263 500 253 511T242 544Q242 579 254 609T289 663T342 704L354 684Q328 668 310 649T283 608T274 564L280 514L254 554Q260 562 267 564T278 566Q292 566 301 559T310 536Q310 521 301 511T278 500Z" />
<glyph unicode="&#x201d;" horiz-adv-x="324" d="M126 496L114 516Q140 532 158 551T185 592T194 636L188 686L214 646Q208 639 202 637T190 634Q177 634 168 641T158 664Q158 679 167 689T190 700Q205 700 215 689T226 656Q226 621 214 591T179 537T126 496ZM248
496L236 516Q262 532 280 551T307 592T316 636L310 686L336 646Q330 639 324 637T312 634Q299 634 290 641T280 664Q280 679 289 689T312 700Q327 700 337 689T348 656Q348 621 336 591T301 537T248 496Z" />
<glyph unicode="&#x201e;" horiz-adv-x="324" d="M-6 -142L-18 -122Q8 -106 26 -87T53 -46T62 -2L56 48L82 8Q76 1 70 -1T58 -4Q45 -4 36 3T26 26Q26 41 35 51T58 62Q73 62 83 51T94 18Q94 -17 82 -47T47 -101T-6 -142ZM116 -142L104 -122Q130 -106 148 -87T175
-46T184 -2L178 48L204 8Q198 1 192 -1T180 -4Q167 -4 158 3T148 26Q148 41 157 51T180 62Q195 62 205 51T216 18Q216 -17 204 -47T169 -101T116 -142Z" />
<glyph unicode="&#x2022;" horiz-adv-x="266" d="M126 160Q90 160 66 186T42 252Q42 281 54 308T91 352T148 370Q183 370 206 345T230 278Q230 248 218 221T182 177T126 160Z" />
<glyph unicode="&#x2039;" horiz-adv-x="236" d="M142 74L40 240L46 272L204 428L220 412L72 252L162 86L142 74Z" />
<glyph unicode="&#x203a;" horiz-adv-x="236" d="M36 74L20 90L168 250L78 416L98 428L200 262L194 230L36 74Z" />
</font>
</defs>
</svg>
