<?xml version="1.0" standalone="no"?>
<!DOCTYPE svg PUBLIC "-//W3C//DTD SVG 1.1//EN" "http://www.w3.org/Graphics/SVG/1.1/DTD/svg11.dtd">
<svg xmlns="http://www.w3.org/2000/svg">
<defs >
<font id="SourceSans3" horiz-adv-x="477" ><font-face
    font-family="Source Sans 3 ExtraBold"
    units-per-em="1000"
    panose-1="2 11 3 3 3 4 3 9 2 4"
    ascent="1024"
    descent="-400"
    alphabetic="0" />
<glyph unicode=" " horiz-adv-x="200" />
<glyph unicode="!" horiz-adv-x="340" d="M118 232L179 670H327L297 537L214 232H118ZM121 -12Q87 -12 67 10T46 67Q46 93 59 117T95 157T150 173Q184 173 204 151T225 94Q225 68 212 44T176 4T121 -12Z" />
<glyph unicode="&quot;" horiz-adv-x="530" d="M119 350L140 537L159 670H306L275 537L216 350H119ZM349 350L370 537L389 670H536L505 537L446 350H349Z" />
<glyph unicode="#" horiz-adv-x="511" d="M32 0L91 185H17L40 281H121L155 389H80L103 485H185L238 650H326L273 485H366L419 650H507L454 485H528L506 389H424L390 281H464L442 185H360L301 0H213L272 185H179L120 0H32ZM209 281H302L336 389H243L209 281Z" />
<glyph unicode="$" horiz-adv-x="514" d="M223 -12Q185 -12 149 0T80 35T20 89L104 171Q128 145 160 126T227 107Q253 107 270 115T297 138T306 175Q306 200 292 220T254 258T206 294T158 334T121 384T106 448Q106 506 133 550T210 621T325 647Q383 647 426 623T507
553L421 472Q400 496 375 512T321 528Q289 528 271 510T253 465Q253 443 267 425T304 390T352 355T401 314T438 262T453 194Q453 134 425 88T345 15T223 -12ZM143 -110L173 49H273L240 -110H143ZM286 608L314 754H411L384 608H286Z" />
<glyph unicode="%" horiz-adv-x="837" d="M193 258Q154 258 122 277T71 333T52 419Q52 472 65 518T105 599T167 653T246 672Q285 672 317 653T368 597T387 511Q387 458 373 412T333 331T272 277T193 258ZM202 346Q219 346 233 357T259 390T276 442T282 509Q282
544 271 564T236 584Q220 584 205 573T180 540T163 488T156 421Q156 386 167 366T202 346ZM143 -12L615 672H699L227 -12H143ZM608 -12Q569 -12 537 7T486 63T467 149Q467 202 480 248T520 329T582 383T661 402Q700 402 732 383T783 327T802 241Q802 188 788 142T748
61T687 7T608 -12ZM617 76Q634 76 648 87T674 120T691 172T697 239Q697 274 686 294T651 314Q635 314 620 303T595 270T578 218T571 151Q571 116 582 96T617 76Z" />
<glyph unicode="&amp;" horiz-adv-x="642" d="M204 -12Q114 -12 64 34T14 152Q14 213 39 254T106 324T192 375T278 418T344 466T370 530Q370 547 362 556T337 566Q319 566 303 555T276 522T266 471Q266 418 295 362T369 256T464 167Q499 141 535 127T598 105L541
-12Q495 -3 449 20T361 79Q301 129 251 196T172 333T143 467Q143 521 170 565T243 636T346 663Q413 663 449 627T485 527Q485 479 462 443T401 379T322 326T243 278T181 228T157 167Q157 138 176 119T230 100Q264 100 301 115T373 162Q422 207 456 258T515 369H649Q615
296 570 227T462 97Q409 46 345 17T204 -12Z" />
<glyph unicode="&apos;" horiz-adv-x="300" d="M119 350L140 537L159 670H306L275 537L216 350H119Z" />
<glyph unicode="(" horiz-adv-x="337" d="M119 -183Q92 -120 73 -44T54 121Q54 247 81 358T160 563T289 734L375 683Q305 609 261 517T195 324T173 124Q173 46 183 -22T212 -144L119 -183Z" />
<glyph unicode=")" horiz-adv-x="339" d="M55 -183L-30 -133Q40 -58 84 34T150 227T172 426Q172 506 162 574T133 695L226 734Q253 671 272 595T291 429Q291 304 264 193T185 -12T55 -183Z" />
<glyph unicode="*" horiz-adv-x="445" d="M173 353L116 405L193 505L97 562L130 631L239 598L271 714L348 708L340 588L456 602L467 527L355 489L393 380L324 341L261 436L173 353Z" />
<glyph unicode="+" horiz-adv-x="514" d="M213 94V278H48V382H215V566H323V382H491V278H322V94H213Z" />
<glyph unicode="," horiz-adv-x="300" d="M-11 -192L-27 -111Q33 -94 65 -64T108 3L126 107L155 19Q146 13 134 7T111 1Q74 1 50 21T26 77Q26 115 52 144T124 173Q167 173 190 146T213 71Q213 5 186 -49T109 -141T-11 -192Z" />
<glyph unicode="-" horiz-adv-x="324" d="M32 201L55 306H292L269 201H32Z" />
<glyph unicode="." horiz-adv-x="300" d="M99 -12Q65 -12 45 10T24 67Q24 93 37 117T73 157T128 173Q162 173 182 151T203 94Q203 68 190 44T154 4T99 -12Z" />
<glyph unicode="/" horiz-adv-x="326" d="M-69 -160L291 710H389L27 -160H-69Z" />
<glyph unicode="0" horiz-adv-x="514" d="M221 -12Q169 -12 128 13T62 89T37 218Q37 304 53 373T97 493T162 578T238 629T320 646Q372 646 413 621T478 545T502 415Q502 328 486 259T442 140T378 55T302 5T221 -12ZM230 102Q250 102 269 118T305 163T337 233T358
324T366 430Q366 469 360 491T341 523T310 533Q291 533 272 517T235 471T204 400T182 309T174 202Q174 164 180 142T200 111T230 102Z" />
<glyph unicode="1" horiz-adv-x="514" d="M17 0L42 119H171L245 484H129L148 576Q202 585 240 599T314 635H423L319 119H434L410 0H17Z" />
<glyph unicode="2" horiz-adv-x="514" d="M-13 0L5 93Q78 149 139 198T245 292T315 378T340 458Q340 490 322 509T269 529Q243 529 220 516T170 481L102 565Q149 606 195 626T287 647Q379 647 432 600T485 473Q485 424 465 380T409 294T325 209T220 117Q244 120
274 122T326 124H443L419 0H-13Z" />
<glyph unicode="3" horiz-adv-x="514" d="M205 -12Q166 -12 126 -1T50 36T-17 103L76 179Q93 156 114 140T158 116T202 107Q234 107 257 116T293 144T306 187Q306 214 293 232T248 261T155 271L175 375Q224 375 255 382T305 402T331 431T339 468Q339 496 320 512T266
529Q244 529 222 520T169 491L98 586Q148 621 195 634T293 647Q352 647 396 628T465 573T491 492Q491 432 461 390T356 323V319Q407 299 430 264T454 186Q454 122 421 78T332 11T205 -12Z" />
<glyph unicode="4" horiz-adv-x="514" d="M382 0H246L276 150H7L27 254L329 635H508L434 264H505L483 150H412L382 0ZM174 264H298L318 364Q326 399 335 435T352 508H348Q329 478 310 449T270 390L174 264Z" />
<glyph unicode="5" horiz-adv-x="514" d="M209 -12Q170 -12 133 -1T61 36T-3 103L90 179Q106 156 125 140T165 116T211 107Q239 107 263 120T302 157T317 217Q317 258 296 278T236 299Q213 299 196 294T145 271L91 316L169 635H519L495 510H273L242 398Q256 404
269 406T298 409Q370 409 419 367T468 241Q468 182 446 136T387 56T304 6T209 -12Z" />
<glyph unicode="6" horiz-adv-x="514" d="M252 -12Q190 -12 145 17T75 97T50 216Q50 310 75 388T145 524T248 615T373 647Q431 647 467 620T528 558L444 482Q430 501 411 514T364 528Q332 528 301 507T245 444T204 341T188 201Q188 168 197 145T222 110T260 98Q288
98 307 117T335 165T344 219Q344 256 328 276T281 297Q268 297 252 291T219 270T182 230L196 335Q223 366 259 382T321 398Q366 398 402 381T458 327T479 232Q479 186 463 143T416 64T344 9T252 -12Z" />
<glyph unicode="7" horiz-adv-x="514" d="M96 0Q126 103 163 192T249 360T364 510H92L116 635H554L535 542Q462 472 414 403T334 265T283 130T248 0H96Z" />
<glyph unicode="8" horiz-adv-x="514" d="M226 -12Q193 -12 159 -3T97 26T50 78T32 152Q32 196 51 230T103 288T174 329V333Q146 364 129 394T112 463Q112 520 142 561T223 624T332 647Q375 647 416 632T482 584T508 498Q508 441 476 399T389 327V323Q414 307
433 285T462 236T473 177Q473 119 439 77T349 12T226 -12ZM323 370Q339 384 352 399T373 432T382 473Q382 503 366 522T321 542Q299 542 281 534T253 510T243 472Q243 438 262 416T323 370ZM243 91Q267 91 289 99T324 126T338 172Q338 196 326 214T290 248T234
284Q206 263 185 236T164 173Q164 147 174 129T201 101T243 91Z" />
<glyph unicode="9" horiz-adv-x="514" d="M170 -12Q129 -12 98 2T45 36T9 77L102 155Q117 134 135 121T179 107Q215 107 246 127T302 187T341 288T355 433Q355 467 346 490T320 525T283 537Q254 537 236 517T208 469T199 415Q199 378 215 358T261 337Q275 337
290 343T323 364T360 405L346 299Q320 269 284 253T221 236Q176 236 141 253T84 308T63 402Q63 449 79 492T126 570T198 626T290 647Q352 647 397 618T467 538T492 418Q492 321 468 242T401 106T299 19T170 -12Z" />
<glyph unicode=":" horiz-adv-x="300" d="M161 314Q127 314 107 336T86 393Q86 419 99 443T135 483T190 499Q224 499 244 477T265 420Q265 394 252 370T216 330T161 314ZM99 -12Q65 -12 45 10T24 67Q24 93 37 117T73 157T128 173Q162 173 182 151T203 94Q203 68
190 44T154 4T99 -12Z" />
<glyph unicode=";" horiz-adv-x="300" d="M161 314Q127 314 107 336T86 393Q86 419 99 443T135 483T190 499Q224 499 244 477T265 420Q265 394 252 370T216 330T161 314ZM-11 -192L-27 -111Q33 -94 65 -64T108 3L126 107L155 19Q146 13 134 7T111 1Q74 1 50 21T26
77Q26 115 52 144T124 173Q167 173 190 146T213 71Q213 5 186 -49T109 -141T-11 -192Z" />
<glyph unicode="&lt;" horiz-adv-x="514" d="M491 103L46 280V382L491 559V438L326 380L197 334V330L326 283L491 226V103Z" />
<glyph unicode="=" horiz-adv-x="514" d="M48 396V500H491V396H48ZM48 416V520H491V416H48Z" />
<glyph unicode="&gt;" horiz-adv-x="514" d="M48 103V226L212 283L342 330V334L212 380L48 438V559L493 382V280L48 103Z" />
<glyph unicode="?" horiz-adv-x="451" d="M146 238Q151 286 170 318T214 375T263 418T304 458T320 506Q320 532 304 547T260 563Q242 563 225 554T188 527L114 610Q150 646 191 664T278 682Q362 682 413 642T464 528Q464 482 447 450T404 394T349 346T300 295T272
227L146 238ZM164 -12Q130 -12 110 10T89 67Q89 93 102 117T138 157T193 173Q227 173 247 151T268 94Q268 68 256 44T219 4T164 -12Z" />
<glyph unicode="@" horiz-adv-x="876" d="M385 -173Q317 -173 255 -152T145 -90T69 15T41 162Q41 270 79 362T182 523T330 631T507 670Q613 670 688 629T802 517T842 360Q842 253 808 181T718 73T596 37Q562 37 533 55T495 111H491Q473 82 441 64T379 46Q343 46
314 64T268 116T251 194Q251 241 267 286T312 366T378 423T457 444Q481 444 498 433T526 396H528L543 435H635L583 211Q574 171 583 151T623 130Q649 130 677 154T725 226T745 345Q745 390 732 432T689 508T612 562T493 582Q431 582 370 552T258 466T176 338T145
179Q145 113 166 64T224 -18T306 -66T398 -82Q426 -82 458 -75T515 -53L552 -129Q512 -150 471 -161T385 -173ZM410 140Q425 140 439 151T470 186L501 320Q494 335 485 341T461 348Q441 348 423 334T392 298T372 251T365 202Q365 173 376 157T410 140Z" />
<glyph unicode="A" horiz-adv-x="555" d="M-64 0L278 651H456L520 0H364L350 349Q349 396 347 442T345 538H341Q321 489 302 443T260 349L99 0H-64ZM110 156L136 268H436L410 156H110Z" />
<glyph unicode="B" horiz-adv-x="597" d="M27 0L157 651H361Q459 651 519 616T580 502Q580 465 563 433T514 377T437 339V335Q474 326 499 310T536 270T549 215Q549 138 511 91T409 22T268 0H27ZM253 388H313Q377 388 404 412T431 476Q431 505 408 521T336 537H284L253
388ZM198 114H278Q321 114 350 125T394 158T409 209Q409 248 386 267T313 287H233L198 114Z" />
<glyph unicode="C" horiz-adv-x="571" d="M304 -12Q230 -12 174 20T87 114T56 262Q56 331 73 391T123 501T197 587T292 643T401 663Q458 663 503 639T575 569L494 485Q474 512 448 523T392 535Q363 535 336 522T285 484T245 426T218 354T208 272Q208 223 221 189T262
135T331 116Q364 116 392 129T444 162L505 69Q472 38 424 13T304 -12Z" />
<glyph unicode="D" horiz-adv-x="627" d="M27 0L157 651H311Q397 651 462 623T564 537T601 388Q601 294 573 222T496 100T381 26T241 0H27ZM200 119H238Q279 119 316 134T384 182T431 263T449 378Q449 435 429 468T377 517T307 532H282L200 119Z" />
<glyph unicode="E" horiz-adv-x="530" d="M27 0L157 651H549L524 526H280L255 399H463L438 274H231L200 124H453L428 0H27Z" />
<glyph unicode="F" horiz-adv-x="510" d="M27 0L157 651H549L524 526H280L251 379H459L434 255H227L176 0H27Z" />
<glyph unicode="G" horiz-adv-x="616" d="M317 -12Q236 -12 178 20T88 114T56 262Q56 348 83 421T158 548T271 632T411 663Q471 663 519 639T594 569L512 480Q491 510 463 522T403 535Q371 535 342 522T288 484T246 426T218 354T208 272Q208 223 222 188T265 134T343
114Q360 114 377 119T407 134L432 252H331L353 373H585L524 56Q487 28 433 8T317 -12Z" />
<glyph unicode="H" horiz-adv-x="658" d="M27 0L157 651H306L255 402H463L512 651H661L531 0H382L438 272H229L176 0H27Z" />
<glyph unicode="I" horiz-adv-x="303" d="M27 0L157 651H306L176 0H27Z" />
<glyph unicode="J" horiz-adv-x="497" d="M179 -12Q121 -12 72 14T-5 96L80 171Q96 147 120 132T177 116Q215 116 238 144T274 234L357 651H506L417 208Q405 148 377 98T299 18T179 -12Z" />
<glyph unicode="K" horiz-adv-x="604" d="M27 0L157 651H306L255 394H259L488 651H650L414 380L559 0H405L304 287L213 186L176 0H27Z" />
<glyph unicode="L" horiz-adv-x="507" d="M27 0L157 651H306L200 125H442L417 0H27Z" />
<glyph unicode="M" horiz-adv-x="747" d="M27 0L157 651H315L358 360Q363 332 366 305T373 247H377Q391 277 404 304T433 360L590 651H750L620 0H480L530 238Q537 271 548 312T571 393T594 468H590L509 309L368 58H304L261 309L241 468H237Q236 434 233 393T225
312T213 238L165 0H27Z" />
<glyph unicode="N" horiz-adv-x="647" d="M27 0L157 651H305L400 324Q406 304 411 281T421 233T431 182H435Q438 238 445 301T463 422L509 651H650L520 0H372L278 327Q270 356 263 392T247 469H243Q239 415 233 352T214 230L169 0H27Z" />
<glyph unicode="O" horiz-adv-x="665" d="M305 -12Q230 -12 175 20T88 115T56 264Q56 335 74 396T123 506T197 590T289 644T390 663Q465 663 521 630T608 536T639 387Q639 316 622 255T572 145T498 61T407 7T305 -12ZM312 116Q337 116 362 128T409 164T449 220T476
292T487 378Q487 427 475 462T439 516T383 535Q358 535 333 523T286 487T246 431T219 359T209 273Q209 224 221 189T256 135T312 116Z" />
<glyph unicode="P" horiz-adv-x="590" d="M27 0L157 651H367Q432 651 483 634T564 578T594 475Q594 406 570 357T504 278T407 233T291 219H219L176 0H27ZM243 336H307Q375 336 411 366T447 453Q447 495 421 514T346 534H282L243 336Z" />
<glyph unicode="Q" horiz-adv-x="665" d="M305 -12Q230 -12 175 20T88 115T57 264Q57 335 74 396T124 506T198 590T289 644T390 663Q465 663 521 630T608 536T639 387Q639 316 622 255T572 145T498 61T407 7T305 -12ZM312 111Q337 111 362 123T409 159T449 215T476
289T487 378Q487 427 475 462T439 516T383 535Q358 535 333 523T286 487T246 431T219 358T209 273Q209 220 221 184T256 130T312 111ZM480 -185Q415 -185 360 -162T263 -91T198 30L349 29Q357 -5 381 -25T437 -55T497 -65Q514 -65 527 -63T555 -56L580 -166Q541
-185 480 -185Z" />
<glyph unicode="R" horiz-adv-x="604" d="M27 0L157 651H367Q431 651 482 635T563 581T593 482Q593 416 569 369T503 291T408 247T298 232H221L176 0H27ZM246 349H309Q378 349 412 379T446 459Q446 498 420 516T345 534H282L246 349ZM374 0L283 266L389 362L531 0H374Z" />
<glyph unicode="S" horiz-adv-x="534" d="M239 -12Q180 -12 119 17T11 111L99 194Q126 159 167 138T254 116Q277 116 295 123T324 144T335 176Q335 204 316 220T260 259L205 292Q159 321 132 359T104 457Q104 514 135 560T219 635T334 663Q391 663 443 636T532
562L448 477Q423 503 395 519T332 535Q307 535 291 527T266 504T257 474Q257 449 277 434T337 393L398 356Q446 326 467 293T489 202Q489 143 459 95T372 17T239 -12Z" />
<glyph unicode="T" horiz-adv-x="536" d="M145 0L250 526H82L106 651H590L566 526H398L294 0H145Z" />
<glyph unicode="U" horiz-adv-x="649" d="M312 -12Q194 -12 135 44T75 218Q75 241 79 271T88 326L154 651H302L231 297Q228 278 226 260T223 223Q223 171 243 144T316 116Q346 116 368 130T406 179T436 278L510 651H655L580 281Q560 176 525 111T437 17T312 -12Z" />
<glyph unicode="V" horiz-adv-x="565" d="M133 0L79 651H234L248 338Q251 287 252 235T254 131H258Q280 183 302 234T346 338L485 651H648L313 0H133Z" />
<glyph unicode="W" horiz-adv-x="801" d="M77 0L99 651H251L228 348Q224 296 219 244T205 139H209Q230 191 251 244T292 348L420 651H547L548 348Q547 298 544 245T539 139H543Q560 192 578 244T612 348L716 651H859L611 0H426L432 295Q434 330 436 372T443 455H439Q426
416 411 374T382 295L263 0H77Z" />
<glyph unicode="X" horiz-adv-x="555" d="M-36 0L204 335L105 651H270L298 528Q303 506 308 481T321 424H324Q342 455 357 481T385 529L457 651H615L387 329L495 0H330L298 134Q291 160 285 185T272 240H269Q252 211 237 185T205 134L122 0H-36Z" />
<glyph unicode="Y" horiz-adv-x="519" d="M137 0L183 232L80 651H234L258 501Q265 464 270 430T281 357H285Q306 395 324 430T363 502L448 651H607L332 232L285 0H137Z" />
<glyph unicode="Z" horiz-adv-x="528" d="M-5 0L13 89L356 526H108L132 651H559L540 562L201 124H474L448 0H-5Z" />
<glyph unicode="[" horiz-adv-x="337" d="M-6 -152L166 708H372L358 629H261L121 -73H217L200 -152H-6Z" />
<glyph unicode="\" horiz-adv-x="326" d="M152 -160L85 710H180L249 -160H152Z" />
<glyph unicode="]" horiz-adv-x="337" d="M-26 -152L-9 -73H86L226 629H131L146 708H352L180 -152H-26Z" />
<glyph unicode="^" horiz-adv-x="511" d="M70 274L220 670H337L486 274H365L324 400L281 536H277L233 400L191 274H70Z" />
<glyph unicode="_" horiz-adv-x="480" d="M-50 -141L-33 -58H423L406 -141H-50Z" />
<glyph unicode="`" horiz-adv-x="537" d="M297 570L168 740L177 756H335L409 570H297Z" />
<glyph unicode="a" horiz-adv-x="555" d="M170 -12Q104 -12 67 35T30 171Q30 242 52 303T111 411T195 484T295 510Q328 510 357 493T401 446H403L425 498H544L444 0H323L324 63H322Q289 29 248 9T170 -12ZM235 109Q258 109 284 123T332 178L366 346Q356 369 339
379T306 389Q282 389 260 374T221 333T193 270T183 190Q183 147 197 128T235 109Z" />
<glyph unicode="b" horiz-adv-x="557" d="M260 -12Q228 -12 200 5T157 52H155L134 0H11L152 698H300L269 546L243 454H245Q278 480 314 495T385 510Q451 510 488 463T525 327Q525 256 503 195T444 87T359 14T260 -12ZM249 109Q273 109 295 124T334 165T361 228T371
308Q371 351 357 370T319 389Q298 389 273 377T226 330L190 152Q200 130 216 120T249 109Z" />
<glyph unicode="c" horiz-adv-x="444" d="M225 -12Q169 -12 125 12T54 83T28 194Q28 258 50 315T113 416T206 485T322 510Q371 510 405 491T458 448L378 363Q365 376 351 383T314 391Q287 391 263 376T219 333T190 271T180 197Q180 156 200 132T258 107Q281 107
299 116T331 137L393 53Q362 24 322 6T225 -12Z" />
<glyph unicode="d" horiz-adv-x="548" d="M170 -12Q104 -12 67 35T30 171Q30 242 51 303T110 411T195 484T295 510Q328 510 354 495T394 452H396L407 546L436 698H585L444 0H323L324 63H322Q289 29 248 9T170 -12ZM235 109Q258 109 283 123T332 179L366 346Q355
369 339 379T306 389Q282 389 260 374T221 333T193 270T183 190Q183 147 197 128T235 109Z" />
<glyph unicode="e" horiz-adv-x="499" d="M244 -12Q145 -12 87 45T28 202Q28 271 52 327T117 425T207 488T306 510Q367 510 403 485T454 417T470 322Q470 298 466 274T456 232T446 205H138L150 303H345Q348 310 348 316T349 330Q349 348 344 363T325 387T288 396Q271
396 250 387T210 357T179 302T167 216Q167 171 181 147T220 112T275 102Q298 102 323 110T366 131L415 44Q384 19 340 4T244 -12Z" />
<glyph unicode="f" horiz-adv-x="335" d="M35 0L112 383H44L67 492L137 498L141 521Q151 573 175 615T239 684T339 710Q369 710 397 703T450 683L403 581Q395 586 381 589T354 593Q329 593 313 581T289 527L283 498H368L345 383H259L184 0H35Z" />
<glyph unicode="g" horiz-adv-x="549" d="M179 -199Q136 -199 88 -184T-5 -130L57 -37Q85 -57 117 -69T183 -82Q226 -82 256 -60T298 3L324 88Q292 54 254 36T175 18Q112 18 71 61T30 192Q30 259 51 316T108 417T191 485T289 510Q322 510 350 493T393 446H395L417
498H538L441 14Q419 -96 351 -147T179 -199ZM233 139Q256 139 282 151T330 199L358 346Q348 369 332 379T300 389Q276 389 255 376T218 339T193 283T183 210Q183 174 197 157T233 139Z" />
<glyph unicode="h" horiz-adv-x="551" d="M11 0L152 698H300L264 526L241 442H245Q277 470 315 490T399 510Q461 510 489 478T517 381Q517 365 516 347T509 310L447 0H298L357 291Q360 306 362 317T365 337Q365 360 353 372T319 384Q296 384 274 370T222 323L160 0H11Z" />
<glyph unicode="i" horiz-adv-x="271" d="M11 0L111 498H259L160 0H11ZM207 567Q178 567 153 584T128 637Q128 672 154 697T219 723Q249 723 273 705T298 653Q298 616 272 592T207 567Z" />
<glyph unicode="j" horiz-adv-x="272" d="M-33 -192Q-58 -192 -82 -187T-129 -169L-90 -65Q-79 -69 -69 -72T-45 -75Q-21 -75 -9 -58T13 0L113 498H261L160 -7Q149 -58 126 -100T65 -167T-33 -192ZM207 567Q178 567 153 584T128 637Q128 672 154 697T219 723Q249
723 273 705T298 653Q298 616 272 592T207 567Z" />
<glyph unicode="k" horiz-adv-x="534" d="M11 0L152 698H300L221 307H225L401 498H564L360 279L478 0H329L258 193L184 119L160 0H11Z" />
<glyph unicode="l" horiz-adv-x="281" d="M152 -12Q87 -12 61 16T35 92Q35 106 37 121T43 156L152 698H300L190 151Q189 142 189 138T188 127Q188 107 205 107Q208 107 211 107T221 109L227 4Q212 -2 193 -7T152 -12Z" />
<glyph unicode="m" horiz-adv-x="833" d="M11 0L111 498H231L230 433H234Q270 464 310 487T393 510Q447 510 472 487T508 424Q548 462 590 486T675 510Q737 510 764 478T792 381Q792 365 791 347T784 310L722 0H574L632 291Q636 306 638 317T640 337Q640 360 629
372T594 384Q579 384 557 370T505 323L440 0H292L350 291Q353 306 355 317T358 337Q358 360 346 372T314 384Q297 384 275 370T222 323L160 0H11Z" />
<glyph unicode="n" horiz-adv-x="557" d="M11 0L111 498H231L230 433H234Q270 464 311 487T399 510Q461 510 489 478T517 381Q517 365 515 347T509 310L447 0H298L357 291Q360 306 362 317T365 337Q365 360 353 372T319 384Q296 384 274 370T222 323L160 0H11Z" />
<glyph unicode="o" horiz-adv-x="535" d="M224 -12Q165 -12 121 13T53 85T28 194Q28 267 52 325T116 424T207 488T309 510Q368 510 412 485T480 413T505 304Q505 231 481 174T417 74T326 10T224 -12ZM241 107Q264 107 285 122T321 163T346 224T355 301Q355 343
340 367T292 391Q269 391 248 377T212 336T187 275T178 197Q178 156 194 132T241 107Z" />
<glyph unicode="p" horiz-adv-x="556" d="M-26 -180L111 498H231L234 443H238Q272 473 310 491T385 510Q451 510 488 463T525 327Q525 256 503 195T444 87T359 14T260 -12Q230 -12 204 3T163 44H161L148 -51L123 -180H-26ZM249 109Q273 109 295 124T334 165T361
228T371 308Q371 351 357 370T319 389Q298 389 273 377T226 330L190 151Q200 130 216 120T249 109Z" />
<glyph unicode="q" horiz-adv-x="555" d="M259 -180L286 -51L324 64H322Q289 29 248 9T170 -12Q104 -12 67 35T30 171Q30 242 51 303T110 411T195 484T295 510Q328 510 357 493T401 446H403L425 498H544L407 -180H259ZM235 109Q258 109 283 123T332 179L366 346Q355
369 339 379T306 389Q282 389 260 374T221 333T193 270T183 190Q183 147 197 128T235 109Z" />
<glyph unicode="r" horiz-adv-x="392" d="M11 0L111 498H231L226 401H230Q260 448 299 479T380 510Q400 510 413 508T433 500L385 372Q375 378 361 379T334 380Q303 380 274 358T214 284L160 0H11Z" />
<glyph unicode="s" horiz-adv-x="428" d="M171 -12Q142 -12 109 -2T46 30T-5 83L69 154Q97 122 126 109T180 96Q197 96 211 101T234 116T243 137Q243 150 233 160T204 180T157 207Q119 229 90 263T60 346Q60 393 86 430T157 488T256 510Q308 510 349 488T421 432L347
356Q328 374 304 387T256 400Q230 400 215 388T199 359Q199 337 225 324T280 293Q306 279 329 260T367 215T382 154Q382 104 355 67T280 9T171 -12Z" />
<glyph unicode="t" horiz-adv-x="376" d="M206 -12Q130 -12 96 26T61 124Q61 141 63 156T69 188L110 383H44L67 492L139 498L186 649H311L282 498H393L370 383H256L215 183Q214 174 214 166T213 150Q213 127 225 116T259 104Q271 104 281 106T301 113L328 12Q307
3 276 -4T206 -12Z" />
<glyph unicode="u" horiz-adv-x="548" d="M152 -12Q91 -12 63 21T35 117Q35 134 37 152T43 188L105 498H253L195 207Q192 193 190 182T187 161Q187 138 199 126T233 114Q254 114 275 129T324 175L387 498H535L437 0H316L318 65H314Q281 35 239 12T152 -12Z" />
<glyph unicode="v" horiz-adv-x="508" d="M121 0L60 498H208L222 263Q224 226 224 188T225 110H229Q247 149 262 186T295 263L399 498H544L293 0H121Z" />
<glyph unicode="w" horiz-adv-x="756" d="M95 0L72 498H217V267Q217 231 214 194T209 117H213Q227 156 239 193T267 267L359 498H492L500 267Q500 231 500 194T499 117H503Q517 156 529 193T554 267L639 498H777L567 0H396L395 196Q395 234 397 271T401 353H397Q383
309 372 272T344 196L267 0H95Z" />
<glyph unicode="x" horiz-adv-x="502" d="M-39 0L169 267L84 498H234L262 416Q267 395 273 374T284 332H288Q300 353 313 374T338 416L382 498H540L347 233L438 0H286L258 81Q250 102 244 124T230 168H226Q214 147 201 126T173 81L120 0H-39Z" />
<glyph unicode="y" horiz-adv-x="508" d="M55 -191Q29 -191 7 -186T-29 -170L14 -62Q30 -70 53 -70Q78 -70 103 -56T142 -13L151 3L62 498H214L236 285Q240 254 241 216T244 145H248Q262 177 278 215T307 285L403 498H553L302 10Q264 -63 227 -107T149 -171T55 -191Z" />
<glyph unicode="z" horiz-adv-x="450" d="M-10 0L7 84L258 383H86L109 498H466L450 413L198 115H397L375 0H-10Z" />
<glyph unicode="{" horiz-adv-x="335" d="M143 -152Q89 -152 67 -129T44 -63Q44 -34 51 0T69 68T87 130T95 176Q95 198 81 216T25 235L44 321Q77 322 97 334T128 363T142 398Q148 429 150 453T155 503T165 564Q176 618 193 650T240 695T314 708H380L364 629H346Q317
629 304 614T283 558Q276 519 270 481T255 399Q244 340 219 313T154 276L153 272Q183 265 197 249T212 200Q212 175 206 143T190 78T174 14T167 -37Q167 -57 175 -65T207 -73H223L207 -152H143Z" />
<glyph unicode="|" horiz-adv-x="259" d="M87 -250V750H179V-250H87Z" />
<glyph unicode="}" horiz-adv-x="339" d="M-35 -152L-18 -73H-1Q29 -73 42 -58T63 -2Q71 37 76 75T90 157Q102 216 126 243T191 280L192 284Q163 291 148 307T133 356Q133 381 140 413T156 478T172 542T179 593Q179 613 171 621T138 629H123L138 708H203Q258 708
279 686T301 619Q301 590 294 556T276 488T258 426T250 380Q250 359 265 341T320 321L302 235Q269 234 249 222T218 193T204 158Q198 127 196 103T191 53T181 -8Q170 -62 153 -94T106 -139T32 -152H-35Z" />
<glyph unicode="~" horiz-adv-x="514" d="M344 243Q316 243 294 254T253 280T217 307T179 318Q160 318 143 305T112 264L37 314Q71 372 110 395T185 419Q213 419 235 408T276 382T312 355T350 344Q370 344 386 357T417 398L491 348Q459 290 420 267T344 243Z" />
<glyph unicode="&#xa0;" horiz-adv-x="200" />
<glyph unicode="&#xa1;" horiz-adv-x="340" d="M17 -172L47 -39L129 266H226L165 -172H17ZM194 325Q160 325 140 347T119 404Q119 431 132 455T169 494T223 510Q257 510 277 489T298 431Q298 405 286 381T249 341T194 325Z" />
<glyph unicode="&#xa2;" horiz-adv-x="514" d="M273 73Q184 73 128 129T71 286Q71 356 97 411T168 506T267 565T376 585Q429 585 463 564T524 510L439 431Q421 448 404 457T361 466Q330 466 303 455T257 422T227 372T216 309Q216 255 241 224T310 192Q340 192
364 200T411 225L456 130Q415 103 370 88T273 73ZM214 -19L352 677H433L295 -19H214Z" />
<glyph unicode="&#xa3;" horiz-adv-x="514" d="M6 0L25 91Q88 118 125 165T162 277Q162 307 156 344T150 411Q150 482 182 534T268 617T390 647Q440 647 480 624T547 561L463 483Q447 505 427 516T383 528Q357 528 336 514T301 469T287 390Q287 368 291 342T296
294Q296 242 282 204T235 128V124H466L443 0H6ZM66 265L85 365L160 371H434L413 265H66Z" />
<glyph unicode="&#xa4;" horiz-adv-x="514" d="M70 90L7 165L71 220Q63 237 59 256T54 296Q54 341 69 379T112 446L66 502L145 569L195 506Q221 518 248 524T303 531Q332 531 357 525T402 507L474 569L537 494L472 438Q480 422 484 404T488 365Q488 320 473 282T431
215L479 157L400 90L347 154Q322 142 294 136T239 130Q211 130 187 135T142 152L70 90ZM255 234Q280 234 302 249T338 291T352 353Q352 389 335 407T287 426Q262 426 240 411T204 369T190 307Q190 274 207 254T255 234Z" />
<glyph unicode="&#xa5;" horiz-adv-x="514" d="M133 0L162 145H15L30 217H177L187 272H41L55 345H169L89 635H241L260 502Q265 469 269 436T281 369H284Q302 403 320 436T357 502L429 635H577L381 345H496L481 272H334L323 217H470L455 145H308L280 0H133Z" />
<glyph unicode="&#xa6;" horiz-adv-x="259" d="M87 312V750H179V312H87ZM87 -250V204H179V-250H87Z" />
<glyph unicode="&#xa7;" horiz-adv-x="511" d="M354 124L281 195Q315 204 334 222T354 275Q354 296 338 313T297 345T244 377T191 414T150 461T134 523Q134 571 156 609T220 669T315 691Q363 691 408 670T490 610L415 528Q396 547 371 563T315 579Q296 579 282
569T268 538Q268 523 283 509T323 480T375 448T427 408T467 358T483 292Q483 251 467 220T423 165T354 124ZM194 -84Q146 -84 93 -62T-1 2L72 93Q96 69 131 48T202 26Q227 26 241 37T255 70Q255 86 240 100T202 129T152 160T102 198T63 248T47 315Q47 375 88 416T187
476L249 411Q220 404 197 385T174 332Q174 311 189 295T229 263T281 231T333 195T373 149T389 87Q389 35 365 -3T296 -63T194 -84Z" />
<glyph unicode="&#xa8;" horiz-adv-x="537" d="M228 569Q201 569 184 585T166 632Q166 662 188 686T245 710Q272 710 289 694T307 647Q307 615 285 592T228 569ZM443 569Q417 569 399 585T381 632Q381 662 403 686T460 710Q487 710 505 694T523 647Q523 615 500
592T443 569Z" />
<glyph unicode="&#xa9;" horiz-adv-x="673" d="M298 -8Q219 -8 159 27T64 125T29 269Q29 349 57 418T135 541T254 625T405 656Q484 656 544 621T639 522T674 378Q674 299 646 229T568 106T449 22T298 -8ZM304 56Q368 56 423 80T519 148T583 249T606 372Q606 431
583 481T514 561T399 592Q335 592 280 567T184 499T120 398T97 275Q97 216 120 166T189 86T304 56ZM331 128Q260 128 217 169T173 283Q173 337 193 380T245 453T317 500T397 516Q432 516 458 500T500 464L438 404Q425 419 412 424T384 430Q359 430 335 413T295
366T279 297Q279 258 299 236T355 214Q374 214 389 220T423 240L465 177Q434 152 400 140T331 128Z" />
<glyph unicode="&#xaa;" horiz-adv-x="367" d="M170 364Q127 364 102 395T76 485Q76 548 101 599T167 680T253 710Q275 710 292 698T319 668H323L338 702H422L357 372H273L274 413H270Q248 390 222 377T170 364ZM214 448Q229 448 246 457T278 493L297 599Q291
613 281 619T261 626Q241 626 223 610T194 564T182 498Q182 472 191 460T214 448Z" />
<glyph unicode="&#xab;" horiz-adv-x="470" d="M144 56L40 204L59 308L211 446L256 397L125 247L202 93L144 56ZM338 56L234 204L253 308L405 446L450 397L319 247L396 93L338 56Z" />
<glyph unicode="&#xac;" horiz-adv-x="514" d="M384 94V278H48V382H491V94H384Z" />
<glyph unicode="&#xad;" horiz-adv-x="324" d="M32 201L55 306H292L269 201H32Z" />
<glyph unicode="&#xae;" horiz-adv-x="451" d="M258 310Q211 310 171 333T107 396T82 489Q82 546 108 598T182 682T293 715Q339 715 378 692T443 629T469 537Q469 479 443 428T368 343T258 310ZM262 360Q307 360 342 384T396 447T415 533Q415 589 381 627T289
666Q244 666 210 642T156 578T136 493Q136 437 170 399T262 360ZM178 416L219 611H304Q334 611 352 596T371 553Q371 534 359 516T323 489L347 416H290L273 476H248L235 416H178ZM256 516H271Q289 516 298 525T308 548Q308 569 283 569H266L256 516Z" />
<glyph unicode="&#xaf;" horiz-adv-x="537" d="M190 592L209 685H497L479 592H190Z" />
<glyph unicode="&#xb0;" horiz-adv-x="355" d="M222 398Q165 398 129 433T93 527Q93 571 115 607T172 664T249 686Q306 686 342 651T378 557Q378 513 356 477T299 420T222 398ZM227 469Q249 469 265 481T290 513T299 556Q299 580 285 597T244 614Q222 614 206
602T181 570T172 527Q172 504 186 487T227 469Z" />
<glyph unicode="&#xb1;" horiz-adv-x="514" d="M213 159V311H48V415H215V566H323V415H491V311H322V159H213ZM48 0V104H491V0H48Z" />
<glyph unicode="&#xb2;" horiz-adv-x="366" d="M61 372L73 431Q140 474 185 511T254 580T277 639Q277 658 266 669T232 681Q218 681 204 671T174 647L114 710Q149 741 180 757T252 774Q314 774 349 744T385 660Q385 625 369 593T322 529T251 463H360L342 372H61Z" />
<glyph unicode="&#xb3;" horiz-adv-x="362" d="M214 360Q160 360 124 382T65 440L134 490Q148 469 165 458T204 446Q232 446 247 459T263 490Q263 513 247 525T181 538L195 603Q231 603 249 611T275 632T282 657Q282 672 272 681T242 690Q226 690 213 686T179
666L134 737Q169 758 200 766T267 774Q321 774 355 747T390 676Q390 639 372 613T312 570Q339 555 353 533T368 485Q368 446 347 418T291 375T214 360Z" />
<glyph unicode="&#xb4;" horiz-adv-x="537" d="M232 570L383 756H550L559 740L353 570H232Z" />
<glyph unicode="&#xb5;" horiz-adv-x="561" d="M-25 -176L111 498H259L199 208Q196 195 195 181T193 159Q193 133 205 123T238 112Q254 112 269 119T299 141T332 181L394 498H544Q518 398 499 321T470 195T460 134Q460 118 468 113T486 107Q491 107 497 108T509
110L504 0Q493 -4 476 -8T436 -12Q382 -12 358 8T332 62Q332 63 332 64T332 67H328Q308 24 276 7T215 -10Q198 -10 181 -4T153 19Q146 -17 141 -49T132 -112T125 -176H-25Z" />
<glyph unicode="&#xb6;" horiz-adv-x="622" d="M317 -80L462 651H610L466 -80H317ZM284 195Q226 195 178 216T99 279T69 380Q69 452 93 503T158 587T253 635T365 651H408L317 195H284Z" />
<glyph unicode="&#xb7;" horiz-adv-x="300" d="M150 234Q116 234 96 256T75 313Q75 339 88 363T124 403T179 419Q213 419 233 397T254 340Q254 314 241 290T205 250T150 234Z" />
<glyph unicode="&#xb8;" horiz-adv-x="537" d="M71 -242V-179Q129 -176 153 -167T181 -136Q183 -121 169 -111T111 -95L178 4H270L229 -61Q267 -70 283 -87T295 -135Q285 -188 228 -213T71 -242Z" />
<glyph unicode="&#xb9;" horiz-adv-x="380" d="M185 372L241 651H155L168 719Q210 725 234 734T287 762H371L294 372H185Z" />
<glyph unicode="&#xba;" horiz-adv-x="360" d="M211 364Q154 364 116 400T77 501Q77 565 104 611T175 684T266 710Q322 710 360 674T399 573Q399 509 372 463T302 390T211 364ZM220 446Q243 446 260 463T286 508T295 571Q295 598 286 613T257 628Q234 628 218
611T192 566T182 503Q182 476 191 461T220 446Z" />
<glyph unicode="&#xbb;" horiz-adv-x="470" d="M72 56L27 105L159 255L82 409L140 446L244 298L225 194L72 56ZM266 56L221 105L353 255L276 409L334 446L438 298L419 194L266 56Z" />
<glyph unicode="&#xbc;" horiz-adv-x="782" d="M133 270L189 549H103L116 617Q158 623 182 632T235 660H319L242 270H133ZM124 -12L596 672H680L208 -12H124ZM575 0L616 200L643 322H639L580 236L518 157H756L741 85H407L418 142L610 390H745L668 0H575Z" />
<glyph unicode="&#xbd;" horiz-adv-x="820" d="M129 270L185 549H99L112 617Q154 623 178 632T231 660H315L238 270H129ZM112 -12L584 672H668L196 -12H112ZM447 0L459 59Q526 102 571 139T640 208T663 267Q663 286 652 297T618 309Q604 309 590 299T560 275L500
338Q535 369 566 385T638 402Q700 402 735 372T771 288Q771 253 755 221T708 157T637 91H746L728 0H447Z" />
<glyph unicode="&#xbe;" horiz-adv-x="793" d="M187 258Q133 258 97 280T38 338L107 388Q121 367 138 356T177 344Q205 344 220 357T236 388Q236 411 220 423T154 436L168 501Q204 501 222 509T248 530T255 555Q255 570 245 579T215 588Q199 588 186 584T152 564L107
635Q142 656 173 664T240 672Q294 672 328 645T363 574Q363 537 345 511T285 468Q312 453 326 431T341 383Q341 344 320 316T264 273T187 258ZM146 -12L618 672H702L230 -12H146ZM586 0L627 200L654 322H650L591 236L529 157H767L752 85H418L429 142L621 390H756L679
0H586Z" />
<glyph unicode="&#xbf;" horiz-adv-x="451" d="M186 -184Q103 -184 51 -143T-1 -30Q-1 16 16 48T60 104T115 152T164 203T192 271L318 260Q313 213 294 180T250 124T201 81T160 40T144 -8Q144 -34 160 -49T204 -65Q223 -65 240 -56T276 -28L350 -112Q314 -147
273 -165T186 -184ZM271 325Q237 325 217 347T196 404Q196 431 209 455T245 494T300 510Q334 510 354 489T375 431Q375 405 362 381T326 341T271 325Z" />
<glyph unicode="&#xc0;" horiz-adv-x="555" d="M-64 0L278 651H456L520 0H364L350 349Q349 396 347 442T345 538H341Q321 489 302 443T260 349L99 0H-64ZM110 156L136 268H436L410 156H110ZM325 701L176 841L185 857H353L446 701H325Z" />
<glyph unicode="&#xc1;" horiz-adv-x="555" d="M-64 0L278 651H456L520 0H364L350 349Q349 396 347 442T345 538H341Q321 489 302 443T260 349L99 0H-64ZM110 156L136 268H436L410 156H110ZM269 701L410 857H588L597 841L390 701H269Z" />
<glyph unicode="&#xc2;" horiz-adv-x="555" d="M-64 0L278 651H456L520 0H364L350 349Q349 396 347 442T345 538H341Q321 489 302 443T260 349L99 0H-64ZM110 156L136 268H436L410 156H110ZM180 701L331 858H470L571 701H450L392 762H388L302 701H180Z" />
<glyph unicode="&#xc3;" horiz-adv-x="555" d="M-64 0L278 651H456L520 0H364L350 349Q349 396 347 442T345 538H341Q321 489 302 443T260 349L99 0H-64ZM110 156L136 268H436L410 156H110ZM443 689Q417 689 398 697T365 716T340 735T316 744Q303 744 293 735T273
698L173 706Q192 786 234 820T329 854Q355 854 374 846T408 827T433 808T456 799Q469 799 480 809T499 845L599 837Q581 758 539 724T443 689Z" />
<glyph unicode="&#xc4;" horiz-adv-x="555" d="M-64 0L278 651H456L520 0H364L350 349Q349 396 347 442T345 538H341Q321 489 302 443T260 349L99 0H-64ZM110 156L136 268H436L410 156H110ZM264 699Q238 699 220 715T202 761Q202 792 225 815T281 839Q308 839
326 823T344 777Q344 744 321 722T264 699ZM485 699Q458 699 440 715T422 761Q422 792 445 815T502 839Q528 839 546 823T564 777Q564 744 542 722T485 699Z" />
<glyph unicode="&#xc5;" horiz-adv-x="555" d="M-64 0L278 651H456L520 0H364L350 349Q349 396 347 442T345 538H341Q321 489 302 443T260 349L99 0H-64ZM110 156L136 268H436L410 156H110ZM382 697Q327 697 292 718T256 787Q256 831 296 863T398 895Q453 895
488 875T524 805Q524 760 484 729T382 697ZM384 751Q403 751 416 767T430 803Q430 821 421 830T396 840Q377 840 364 825T350 789Q350 772 359 762T384 751Z" />
<glyph unicode="&#xc6;" horiz-adv-x="845" d="M-36 0L380 651H862L838 526H602L577 399H776L752 274H553L522 124H766L742 0H349L458 544H455Q427 497 400 453T345 363L132 0H-36ZM139 148L164 263H478L456 148H139Z" />
<glyph unicode="&#xc7;" horiz-adv-x="571" d="M304 -12Q230 -12 174 20T87 114T56 262Q56 331 73 391T123 501T197 587T292 643T401 663Q458 663 503 639T575 569L494 485Q474 512 448 523T392 535Q363 535 336 522T285 484T245 426T218 354T208 272Q208 223
221 189T262 135T331 116Q364 116 392 129T444 162L505 69Q472 38 424 13T304 -12ZM131 -242V-179Q189 -176 213 -167T241 -136Q243 -121 229 -111T171 -95L238 4H330L289 -61Q327 -70 343 -87T355 -135Q345 -188 288 -213T131 -242Z" />
<glyph unicode="&#xc8;" horiz-adv-x="530" d="M27 0L157 651H549L524 526H280L255 399H463L438 274H231L200 124H453L428 0H27ZM318 701L169 841L178 857H346L439 701H318Z" />
<glyph unicode="&#xc9;" horiz-adv-x="530" d="M27 0L157 651H549L524 526H280L255 399H463L438 274H231L200 124H453L428 0H27ZM262 701L403 857H581L590 841L383 701H262Z" />
<glyph unicode="&#xca;" horiz-adv-x="530" d="M27 0L157 651H549L524 526H280L255 399H463L438 274H231L200 124H453L428 0H27ZM173 701L324 858H463L564 701H443L385 762H381L295 701H173Z" />
<glyph unicode="&#xcb;" horiz-adv-x="530" d="M27 0L157 651H549L524 526H280L255 399H463L438 274H231L200 124H453L428 0H27ZM257 699Q231 699 213 715T195 761Q195 792 218 815T274 839Q301 839 319 823T337 777Q337 744 314 722T257 699ZM478 699Q451 699
433 715T415 761Q415 792 438 815T495 839Q521 839 539 823T557 777Q557 744 535 722T478 699Z" />
<glyph unicode="&#xcc;" horiz-adv-x="303" d="M27 0L157 651H306L176 0H27ZM195 701L46 841L55 857H223L316 701H195Z" />
<glyph unicode="&#xcd;" horiz-adv-x="303" d="M27 0L157 651H306L176 0H27ZM139 701L280 857H458L467 841L260 701H139Z" />
<glyph unicode="&#xce;" horiz-adv-x="303" d="M27 0L157 651H306L176 0H27ZM50 701L201 858H340L441 701H320L262 762H258L172 701H50Z" />
<glyph unicode="&#xcf;" horiz-adv-x="303" d="M27 0L157 651H306L176 0H27ZM134 699Q108 699 90 715T72 761Q72 792 95 815T151 839Q178 839 196 823T214 777Q214 744 191 722T134 699ZM355 699Q328 699 310 715T292 761Q292 792 315 815T372 839Q398 839 416
823T434 777Q434 744 412 722T355 699Z" />
<glyph unicode="&#xd0;" horiz-adv-x="647" d="M32 289L50 376L125 382H398L380 289H32ZM47 0L177 651H331Q417 651 482 623T584 537T621 388Q621 294 593 222T516 100T401 26T261 0H47ZM220 119H258Q299 119 336 134T404 182T451 263T469 378Q469 435 449 468T397
517T327 532H302L220 119Z" />
<glyph unicode="&#xd1;" horiz-adv-x="647" d="M27 0L157 651H305L400 324Q406 304 411 281T421 233T431 182H435Q438 238 445 301T463 422L509 651H650L520 0H372L278 327Q270 356 263 392T247 469H243Q239 415 233 352T214 230L169 0H27ZM485 689Q459 689 440
697T407 716T382 735T358 744Q345 744 335 735T315 698L215 706Q234 786 276 820T371 854Q397 854 416 846T450 827T475 808T498 799Q511 799 522 809T541 845L641 837Q623 758 581 724T485 689Z" />
<glyph unicode="&#xd2;" horiz-adv-x="665" d="M305 -12Q230 -12 175 20T88 115T56 264Q56 335 74 396T123 506T197 590T289 644T390 663Q465 663 521 630T608 536T639 387Q639 316 622 255T572 145T498 61T407 7T305 -12ZM312 116Q337 116 362 128T409 164T449
220T476 292T487 378Q487 427 475 462T439 516T383 535Q358 535 333 523T286 487T246 431T219 359T209 273Q209 224 221 189T256 135T312 116ZM368 701L219 841L228 857H396L489 701H368Z" />
<glyph unicode="&#xd3;" horiz-adv-x="665" d="M305 -12Q230 -12 175 20T88 115T56 264Q56 335 74 396T123 506T197 590T289 644T390 663Q465 663 521 630T608 536T639 387Q639 316 622 255T572 145T498 61T407 7T305 -12ZM312 116Q337 116 362 128T409 164T449
220T476 292T487 378Q487 427 475 462T439 516T383 535Q358 535 333 523T286 487T246 431T219 359T209 273Q209 224 221 189T256 135T312 116ZM312 701L453 857H631L640 841L433 701H312Z" />
<glyph unicode="&#xd4;" horiz-adv-x="665" d="M305 -12Q230 -12 175 20T88 115T56 264Q56 335 74 396T123 506T197 590T289 644T390 663Q465 663 521 630T608 536T639 387Q639 316 622 255T572 145T498 61T407 7T305 -12ZM312 116Q337 116 362 128T409 164T449
220T476 292T487 378Q487 427 475 462T439 516T383 535Q358 535 333 523T286 487T246 431T219 359T209 273Q209 224 221 189T256 135T312 116ZM223 701L374 858H513L614 701H493L435 762H431L345 701H223Z" />
<glyph unicode="&#xd5;" horiz-adv-x="665" d="M305 -12Q230 -12 175 20T88 115T56 264Q56 335 74 396T123 506T197 590T289 644T390 663Q465 663 521 630T608 536T639 387Q639 316 622 255T572 145T498 61T407 7T305 -12ZM312 116Q337 116 362 128T409 164T449
220T476 292T487 378Q487 427 475 462T439 516T383 535Q358 535 333 523T286 487T246 431T219 359T209 273Q209 224 221 189T256 135T312 116ZM486 689Q460 689 441 697T408 716T383 735T359 744Q346 744 336 735T316 698L216 706Q235 786 277 820T372 854Q398
854 417 846T451 827T476 808T499 799Q512 799 523 809T542 845L642 837Q624 758 582 724T486 689Z" />
<glyph unicode="&#xd6;" horiz-adv-x="665" d="M305 -12Q230 -12 175 20T88 115T56 264Q56 335 74 396T123 506T197 590T289 644T390 663Q465 663 521 630T608 536T639 387Q639 316 622 255T572 145T498 61T407 7T305 -12ZM312 116Q337 116 362 128T409 164T449
220T476 292T487 378Q487 427 475 462T439 516T383 535Q358 535 333 523T286 487T246 431T219 359T209 273Q209 224 221 189T256 135T312 116ZM307 699Q281 699 263 715T245 761Q245 792 268 815T324 839Q351 839 369 823T387 777Q387 744 364 722T307 699ZM528
699Q501 699 483 715T465 761Q465 792 488 815T545 839Q571 839 589 823T607 777Q607 744 585 722T528 699Z" />
<glyph unicode="&#xd7;" horiz-adv-x="514" d="M135 117L62 190L197 330L62 470L135 543L269 403L404 543L476 470L342 330L476 190L404 117L269 257L135 117Z" />
<glyph unicode="&#xd8;" horiz-adv-x="665" d="M56 -43L-12 19L652 701L720 639L56 -43ZM305 -12Q230 -12 175 20T88 115T56 264Q56 335 74 396T123 506T197 590T289 644T390 663Q465 663 521 630T608 536T639 387Q639 316 622 255T572 145T498 61T407 7T305 -12ZM312
116Q337 116 362 128T409 164T449 220T476 292T487 378Q487 427 475 462T439 516T383 535Q358 535 333 523T286 487T246 431T219 359T209 273Q209 224 221 189T256 135T312 116Z" />
<glyph unicode="&#xd9;" horiz-adv-x="649" d="M312 -12Q194 -12 135 44T75 218Q75 241 79 271T88 326L154 651H302L231 297Q228 278 226 260T223 223Q223 171 243 144T316 116Q346 116 368 130T406 179T436 278L510 651H655L580 281Q560 176 525 111T437 17T312
-12ZM366 701L217 841L226 857H394L487 701H366Z" />
<glyph unicode="&#xda;" horiz-adv-x="649" d="M312 -12Q194 -12 135 44T75 218Q75 241 79 271T88 326L154 651H302L231 297Q228 278 226 260T223 223Q223 171 243 144T316 116Q346 116 368 130T406 179T436 278L510 651H655L580 281Q560 176 525 111T437 17T312
-12ZM310 701L451 857H629L638 841L431 701H310Z" />
<glyph unicode="&#xdb;" horiz-adv-x="649" d="M312 -12Q194 -12 135 44T75 218Q75 241 79 271T88 326L154 651H302L231 297Q228 278 226 260T223 223Q223 171 243 144T316 116Q346 116 368 130T406 179T436 278L510 651H655L580 281Q560 176 525 111T437 17T312
-12ZM221 701L372 858H511L612 701H491L433 762H429L343 701H221Z" />
<glyph unicode="&#xdc;" horiz-adv-x="649" d="M312 -12Q194 -12 135 44T75 218Q75 241 79 271T88 326L154 651H302L231 297Q228 278 226 260T223 223Q223 171 243 144T316 116Q346 116 368 130T406 179T436 278L510 651H655L580 281Q560 176 525 111T437 17T312
-12ZM305 699Q279 699 261 715T243 761Q243 792 266 815T322 839Q349 839 367 823T385 777Q385 744 362 722T305 699ZM526 699Q499 699 481 715T463 761Q463 792 486 815T543 839Q569 839 587 823T605 777Q605 744 583 722T526 699Z" />
<glyph unicode="&#xdd;" horiz-adv-x="519" d="M137 0L183 232L80 651H234L258 501Q265 464 270 430T281 357H285Q306 395 324 430T363 502L448 651H607L332 232L285 0H137ZM248 701L389 857H567L576 841L369 701H248Z" />
<glyph unicode="&#xde;" horiz-adv-x="602" d="M27 0L157 660H306L284 552H367Q426 552 473 535T549 480T577 377Q577 307 553 258T486 179T388 135T272 121H197L174 0H27ZM221 238H288Q356 238 393 267T430 355Q430 396 406 415T336 435H260L221 238Z" />
<glyph unicode="&#xdf;" horiz-adv-x="620" d="M381 -12Q344 -12 308 -2T240 33L291 126Q309 113 331 106T379 98Q396 98 408 104T427 123T434 151Q434 170 422 185T391 215T354 247T324 286T311 340Q311 366 323 386T354 422T390 455T420 491T433 536Q433 563
418 578T366 593Q338 593 315 578T277 535T255 473L160 0H11L112 502Q124 561 157 608T245 682T372 710Q423 710 469 695T545 645T575 558Q575 524 564 499T534 455T498 421T468 390T456 360Q456 346 467 333T496 304T531 271T559 227T571 166Q571 117 546 77T477
12T381 -12Z" />
<glyph unicode="&#xe0;" horiz-adv-x="555" d="M170 -12Q104 -12 67 35T30 171Q30 242 52 303T111 411T195 484T295 510Q328 510 357 493T401 446H403L425 498H544L444 0H323L324 63H322Q289 29 248 9T170 -12ZM235 109Q258 109 284 123T332 178L366 346Q356 369
339 379T306 389Q282 389 260 374T221 333T193 270T183 190Q183 147 197 128T235 109ZM297 570L168 740L177 756H335L409 570H297Z" />
<glyph unicode="&#xe1;" horiz-adv-x="555" d="M170 -12Q104 -12 67 35T30 171Q30 242 52 303T111 411T195 484T295 510Q328 510 357 493T401 446H403L425 498H544L444 0H323L324 63H322Q289 29 248 9T170 -12ZM235 109Q258 109 284 123T332 178L366 346Q356 369
339 379T306 389Q282 389 260 374T221 333T193 270T183 190Q183 147 197 128T235 109ZM232 570L383 756H550L559 740L353 570H232Z" />
<glyph unicode="&#xe2;" horiz-adv-x="555" d="M170 -12Q104 -12 67 35T30 171Q30 242 52 303T111 411T195 484T295 510Q328 510 357 493T401 446H403L425 498H544L444 0H323L324 63H322Q289 29 248 9T170 -12ZM235 109Q258 109 284 123T332 178L366 346Q356 369
339 379T306 389Q282 389 260 374T221 333T193 270T183 190Q183 147 197 128T235 109ZM134 570L294 766H442L524 570H412L357 661H353L255 570H134Z" />
<glyph unicode="&#xe3;" horiz-adv-x="555" d="M170 -12Q104 -12 67 35T30 171Q30 242 52 303T111 411T195 484T295 510Q328 510 357 493T401 446H403L425 498H544L444 0H323L324 63H322Q289 29 248 9T170 -12ZM235 109Q258 109 284 123T332 178L366 346Q356 369
339 379T306 389Q282 389 260 374T221 333T193 270T183 190Q183 147 197 128T235 109ZM415 573Q388 573 370 582T337 603T309 624T281 633Q268 633 257 622T240 582L143 588Q152 641 171 675T218 726T280 742Q307 742 325 733T358 713T386 692T414 682Q427 682
438 693T455 733L552 728Q543 674 524 640T477 589T415 573Z" />
<glyph unicode="&#xe4;" horiz-adv-x="555" d="M170 -12Q104 -12 67 35T30 171Q30 242 52 303T111 411T195 484T295 510Q328 510 357 493T401 446H403L425 498H544L444 0H323L324 63H322Q289 29 248 9T170 -12ZM235 109Q258 109 284 123T332 178L366 346Q356 369
339 379T306 389Q282 389 260 374T221 333T193 270T183 190Q183 147 197 128T235 109ZM228 569Q201 569 184 585T166 632Q166 662 188 686T245 710Q272 710 289 694T307 647Q307 615 285 592T228 569ZM443 569Q417 569 399 585T381 632Q381 662 403 686T460 710Q487
710 505 694T523 647Q523 615 500 592T443 569Z" />
<glyph unicode="&#xe5;" horiz-adv-x="555" d="M170 -12Q104 -12 67 35T30 171Q30 242 52 303T111 411T195 484T295 510Q328 510 357 493T401 446H403L425 498H544L444 0H323L324 63H322Q289 29 248 9T170 -12ZM235 109Q258 109 284 123T332 178L366 346Q356 369
339 379T306 389Q282 389 260 374T221 333T193 270T183 190Q183 147 197 128T235 109ZM335 568Q284 568 251 592T217 659Q217 708 259 741T366 774Q418 774 451 751T484 683Q484 635 442 602T335 568ZM344 625Q363 625 377 641T391 679Q391 694 383 705T357 717Q338
717 324 701T310 663Q310 647 319 636T344 625Z" />
<glyph unicode="&#xe6;" horiz-adv-x="753" d="M154 -12Q97 -12 59 22T20 113Q20 186 60 229T169 291T321 313Q322 316 322 320T323 329Q323 363 306 379T258 395Q234 395 205 386T142 358L97 460Q138 481 187 495T276 510Q326 510 362 496T417 449Q449 478 486
494T561 510Q621 510 657 485T708 417T724 322Q724 298 720 274T710 232T700 205H432Q430 168 442 145T478 112T530 102Q552 102 578 110T621 131L669 44Q639 19 595 4T498 -12Q446 -12 404 11T340 66Q296 29 252 9T154 -12ZM215 102Q235 102 258 115T304 155Q302
171 302 186T302 222Q254 220 224 210T179 182T165 143Q165 124 178 113T215 102ZM444 303H600Q602 311 603 317T604 330Q604 348 598 363T579 387T542 396Q524 396 506 386T471 356T444 303Z" />
<glyph unicode="&#xe7;" horiz-adv-x="444" d="M225 -12Q169 -12 125 12T54 83T28 194Q28 258 50 315T113 416T206 485T322 510Q371 510 405 491T458 448L378 363Q365 376 351 383T314 391Q287 391 263 376T219 333T190 271T180 197Q180 156 200 132T258 107Q281
107 299 116T331 137L393 53Q362 24 322 6T225 -12ZM61 -242V-179Q119 -176 143 -167T171 -136Q173 -121 159 -111T101 -95L168 4H260L219 -61Q257 -70 273 -87T285 -135Q275 -188 218 -213T61 -242Z" />
<glyph unicode="&#xe8;" horiz-adv-x="499" d="M244 -12Q145 -12 87 45T28 202Q28 271 52 327T117 425T207 488T306 510Q367 510 403 485T454 417T470 322Q470 298 466 274T456 232T446 205H138L150 303H345Q348 310 348 316T349 330Q349 348 344 363T325 387T288
396Q271 396 250 387T210 357T179 302T167 216Q167 171 181 147T220 112T275 102Q298 102 323 110T366 131L415 44Q384 19 340 4T244 -12ZM295 570L166 740L175 756H333L407 570H295Z" />
<glyph unicode="&#xe9;" horiz-adv-x="499" d="M244 -12Q145 -12 87 45T28 202Q28 271 52 327T117 425T207 488T306 510Q367 510 403 485T454 417T470 322Q470 298 466 274T456 232T446 205H138L150 303H345Q348 310 348 316T349 330Q349 348 344 363T325 387T288
396Q271 396 250 387T210 357T179 302T167 216Q167 171 181 147T220 112T275 102Q298 102 323 110T366 131L415 44Q384 19 340 4T244 -12ZM230 570L381 756H548L557 740L351 570H230Z" />
<glyph unicode="&#xea;" horiz-adv-x="499" d="M244 -12Q145 -12 87 45T28 202Q28 271 52 327T117 425T207 488T306 510Q367 510 403 485T454 417T470 322Q470 298 466 274T456 232T446 205H138L150 303H345Q348 310 348 316T349 330Q349 348 344 363T325 387T288
396Q271 396 250 387T210 357T179 302T167 216Q167 171 181 147T220 112T275 102Q298 102 323 110T366 131L415 44Q384 19 340 4T244 -12ZM132 570L292 766H440L522 570H410L355 661H351L253 570H132Z" />
<glyph unicode="&#xeb;" horiz-adv-x="499" d="M244 -12Q145 -12 87 45T28 202Q28 271 52 327T117 425T207 488T306 510Q367 510 403 485T454 417T470 322Q470 298 466 274T456 232T446 205H138L150 303H345Q348 310 348 316T349 330Q349 348 344 363T325 387T288
396Q271 396 250 387T210 357T179 302T167 216Q167 171 181 147T220 112T275 102Q298 102 323 110T366 131L415 44Q384 19 340 4T244 -12ZM226 569Q199 569 182 585T164 632Q164 662 186 686T243 710Q270 710 287 694T305 647Q305 615 283 592T226 569ZM441 569Q415
569 397 585T379 632Q379 662 401 686T458 710Q485 710 503 694T521 647Q521 615 498 592T441 569Z" />
<glyph unicode="&#xec;" horiz-adv-x="271" d="M11 0L111 498H259L160 0H11ZM165 570L36 740L45 756H203L277 570H165Z" />
<glyph unicode="&#xed;" horiz-adv-x="271" d="M11 0L111 498H259L160 0H11ZM100 570L251 756H418L427 740L221 570H100Z" />
<glyph unicode="&#xee;" horiz-adv-x="271" d="M11 0L111 498H259L160 0H11ZM2 570L162 766H310L392 570H280L225 661H221L123 570H2Z" />
<glyph unicode="&#xef;" horiz-adv-x="271" d="M11 0L111 498H259L160 0H11ZM96 569Q69 569 52 585T34 632Q34 662 56 686T113 710Q140 710 157 694T175 647Q175 615 153 592T96 569ZM311 569Q285 569 267 585T249 632Q249 662 271 686T328 710Q355 710 373 694T391
647Q391 615 368 592T311 569Z" />
<glyph unicode="&#xf0;" horiz-adv-x="552" d="M226 -12Q169 -12 125 11T55 79T30 184Q30 233 46 281T94 369T169 432T268 456Q309 456 341 434T385 366L364 288Q352 311 331 328T280 345Q247 345 224 323T189 266T177 195Q177 171 185 151T208 119T245 107Q270
107 291 123T329 172T355 251T365 358Q365 425 347 478T286 575T168 656L240 742Q323 704 384 650T478 527T512 373Q512 256 475 170T374 36T226 -12ZM164 477L134 551L522 706L552 632L164 477Z" />
<glyph unicode="&#xf1;" horiz-adv-x="557" d="M11 0L111 498H231L230 433H234Q270 464 311 487T399 510Q461 510 489 478T517 381Q517 365 515 347T509 310L447 0H298L357 291Q360 306 362 317T365 337Q365 360 353 372T319 384Q296 384 274 370T222 323L160
0H11ZM434 573Q407 573 389 582T356 603T328 624T300 633Q287 633 276 622T259 582L162 588Q171 641 190 675T237 726T299 742Q326 742 344 733T377 713T405 692T433 682Q446 682 457 693T474 733L571 728Q562 674 543 640T496 589T434 573Z" />
<glyph unicode="&#xf2;" horiz-adv-x="535" d="M224 -12Q165 -12 121 13T53 85T28 194Q28 267 52 325T116 424T207 488T309 510Q368 510 412 485T480 413T505 304Q505 231 481 174T417 74T326 10T224 -12ZM241 107Q264 107 285 122T321 163T346 224T355 301Q355
343 340 367T292 391Q269 391 248 377T212 336T187 275T178 197Q178 156 194 132T241 107ZM297 570L168 740L177 756H335L409 570H297Z" />
<glyph unicode="&#xf3;" horiz-adv-x="535" d="M224 -12Q165 -12 121 13T53 85T28 194Q28 267 52 325T116 424T207 488T309 510Q368 510 412 485T480 413T505 304Q505 231 481 174T417 74T326 10T224 -12ZM241 107Q264 107 285 122T321 163T346 224T355 301Q355
343 340 367T292 391Q269 391 248 377T212 336T187 275T178 197Q178 156 194 132T241 107ZM232 570L383 756H550L559 740L353 570H232Z" />
<glyph unicode="&#xf4;" horiz-adv-x="535" d="M224 -12Q165 -12 121 13T53 85T28 194Q28 267 52 325T116 424T207 488T309 510Q368 510 412 485T480 413T505 304Q505 231 481 174T417 74T326 10T224 -12ZM241 107Q264 107 285 122T321 163T346 224T355 301Q355
343 340 367T292 391Q269 391 248 377T212 336T187 275T178 197Q178 156 194 132T241 107ZM134 570L294 766H442L524 570H412L357 661H353L255 570H134Z" />
<glyph unicode="&#xf5;" horiz-adv-x="535" d="M224 -12Q165 -12 121 13T53 85T28 194Q28 267 52 325T116 424T207 488T309 510Q368 510 412 485T480 413T505 304Q505 231 481 174T417 74T326 10T224 -12ZM241 107Q264 107 285 122T321 163T346 224T355 301Q355
343 340 367T292 391Q269 391 248 377T212 336T187 275T178 197Q178 156 194 132T241 107ZM415 573Q388 573 370 582T337 603T309 624T281 633Q268 633 257 622T240 582L143 588Q152 641 171 675T218 726T280 742Q307 742 325 733T358 713T386 692T414 682Q427
682 438 693T455 733L552 728Q543 674 524 640T477 589T415 573Z" />
<glyph unicode="&#xf6;" horiz-adv-x="535" d="M224 -12Q165 -12 121 13T53 85T28 194Q28 267 52 325T116 424T207 488T309 510Q368 510 412 485T480 413T505 304Q505 231 481 174T417 74T326 10T224 -12ZM241 107Q264 107 285 122T321 163T346 224T355 301Q355
343 340 367T292 391Q269 391 248 377T212 336T187 275T178 197Q178 156 194 132T241 107ZM228 569Q201 569 184 585T166 632Q166 662 188 686T245 710Q272 710 289 694T307 647Q307 615 285 592T228 569ZM443 569Q417 569 399 585T381 632Q381 662 403 686T460
710Q487 710 505 694T523 647Q523 615 500 592T443 569Z" />
<glyph unicode="&#xf7;" horiz-adv-x="514" d="M48 278V382H491V278H48ZM269 72Q235 72 212 93T188 148Q188 181 211 203T269 226Q303 226 326 204T350 148Q350 114 327 93T269 72ZM269 434Q235 434 212 456T188 512Q188 545 211 566T269 588Q303 588 326 567T350
512Q350 478 327 456T269 434Z" />
<glyph unicode="&#xf8;" horiz-adv-x="535" d="M224 -12Q169 -12 125 12T54 83T28 194Q28 267 52 325T116 424T207 488T309 510Q364 510 408 486T479 415T505 304Q505 231 481 173T417 73T326 10T224 -12ZM235 103Q269 103 293 121T334 168T358 231T366 300Q366
342 349 368T298 395Q265 395 241 377T200 329T175 265T167 197Q167 156 183 130T235 103ZM47 -27L-2 20L488 524L539 478L47 -27Z" />
<glyph unicode="&#xf9;" horiz-adv-x="548" d="M152 -12Q91 -12 63 21T35 117Q35 134 37 152T43 188L105 498H253L195 207Q192 193 190 182T187 161Q187 138 199 126T233 114Q254 114 275 129T324 175L387 498H535L437 0H316L318 65H314Q281 35 239 12T152 -12ZM297
570L168 740L177 756H335L409 570H297Z" />
<glyph unicode="&#xfa;" horiz-adv-x="548" d="M152 -12Q91 -12 63 21T35 117Q35 134 37 152T43 188L105 498H253L195 207Q192 193 190 182T187 161Q187 138 199 126T233 114Q254 114 275 129T324 175L387 498H535L437 0H316L318 65H314Q281 35 239 12T152 -12ZM232
570L383 756H550L559 740L353 570H232Z" />
<glyph unicode="&#xfb;" horiz-adv-x="548" d="M152 -12Q91 -12 63 21T35 117Q35 134 37 152T43 188L105 498H253L195 207Q192 193 190 182T187 161Q187 138 199 126T233 114Q254 114 275 129T324 175L387 498H535L437 0H316L318 65H314Q281 35 239 12T152 -12ZM134
570L294 766H442L524 570H412L357 661H353L255 570H134Z" />
<glyph unicode="&#xfc;" horiz-adv-x="548" d="M152 -12Q91 -12 63 21T35 117Q35 134 37 152T43 188L105 498H253L195 207Q192 193 190 182T187 161Q187 138 199 126T233 114Q254 114 275 129T324 175L387 498H535L437 0H316L318 65H314Q281 35 239 12T152 -12ZM228
569Q201 569 184 585T166 632Q166 662 188 686T245 710Q272 710 289 694T307 647Q307 615 285 592T228 569ZM443 569Q417 569 399 585T381 632Q381 662 403 686T460 710Q487 710 505 694T523 647Q523 615 500 592T443 569Z" />
<glyph unicode="&#xfd;" horiz-adv-x="508" d="M55 -191Q29 -191 7 -186T-29 -170L14 -62Q30 -70 53 -70Q78 -70 103 -56T142 -13L151 3L62 498H214L236 285Q240 254 241 216T244 145H248Q262 177 278 215T307 285L403 498H553L302 10Q264 -63 227 -107T149 -171T55
-191ZM217 570L368 756H535L544 740L338 570H217Z" />
<glyph unicode="&#xfe;" horiz-adv-x="556" d="M-26 -180L152 698H300L269 546L243 454H245Q278 480 314 495T385 510Q451 510 488 463T525 327Q525 256 503 195T444 87T359 14T260 -12Q230 -12 204 3T163 44H161L148 -51L123 -180H-26ZM249 109Q273 109 295 124T334
165T361 228T371 308Q371 351 357 370T319 389Q298 389 273 377T226 330L190 151Q200 130 216 120T249 109Z" />
<glyph unicode="&#xff;" horiz-adv-x="508" d="M55 -191Q29 -191 7 -186T-29 -170L14 -62Q30 -70 53 -70Q78 -70 103 -56T142 -13L151 3L62 498H214L236 285Q240 254 241 216T244 145H248Q262 177 278 215T307 285L403 498H553L302 10Q264 -63 227 -107T149 -171T55
-191ZM213 569Q186 569 169 585T151 632Q151 662 173 686T230 710Q257 710 274 694T292 647Q292 615 270 592T213 569ZM428 569Q402 569 384 585T366 632Q366 662 388 686T445 710Q472 710 490 694T508 647Q508 615 485 592T428 569Z" />
<glyph unicode="&#x2013;" horiz-adv-x="464" d="M34 205L53 300H430L411 205H34Z" />
<glyph unicode="&#x2014;" horiz-adv-x="772" d="M34 205L53 300H737L719 205H34Z" />
<glyph unicode="&#x2018;" horiz-adv-x="300" d="M178 363Q143 363 122 390T100 466Q100 528 125 575T191 653T280 699L303 635Q265 621 239 599T199 553T185 515L176 430L147 499Q157 507 168 512T191 517Q224 517 245 500T266 450Q266 416 243 390T178 363Z" />
<glyph unicode="&#x2019;" horiz-adv-x="300" d="M130 361L107 425Q145 439 171 461T211 506T225 545L234 629L263 560Q254 553 243 548T219 543Q187 543 165 560T143 609Q143 643 167 669T232 696Q268 696 289 669T310 594Q310 532 285 485T219 406T130 361Z" />
<glyph unicode="&#x201a;" horiz-adv-x="300" d="M27 -160L4 -96Q42 -82 68 -60T108 -15T122 24L131 108L160 39Q151 32 140 27T116 22Q84 22 62 39T40 88Q40 122 64 148T129 175Q165 175 186 148T207 73Q207 11 182 -36T116 -115T27 -160Z" />
<glyph unicode="&#x201c;" horiz-adv-x="530" d="M178 363Q143 363 122 390T100 466Q100 528 125 575T191 653T280 699L303 635Q265 621 239 599T199 553T185 515L176 430L147 499Q157 507 168 512T191 517Q224 517 245 500T266 450Q266 416 243 390T178 363ZM408
363Q373 363 352 390T330 466Q330 528 355 575T421 653T510 699L533 635Q495 621 469 599T429 553T415 515L406 430L377 499Q387 507 398 512T421 517Q454 517 475 500T496 450Q496 416 473 390T408 363Z" />
<glyph unicode="&#x201d;" horiz-adv-x="530" d="M130 361L107 425Q145 439 171 461T211 506T225 545L234 629L263 560Q254 553 243 548T219 543Q187 543 165 560T143 609Q143 643 167 669T232 696Q268 696 289 669T310 594Q310 532 285 485T219 406T130 361ZM360
361L337 425Q375 439 401 461T441 506T455 545L464 629L493 560Q484 553 473 548T449 543Q417 543 395 560T373 609Q373 643 397 669T462 696Q498 696 519 669T540 594Q540 532 515 485T449 406T360 361Z" />
<glyph unicode="&#x201e;" horiz-adv-x="530" d="M27 -160L4 -96Q42 -82 68 -60T108 -15T122 24L131 108L160 39Q151 32 140 27T116 22Q84 22 62 39T40 88Q40 122 64 148T129 175Q165 175 186 148T207 73Q207 11 182 -36T116 -115T27 -160ZM257 -160L234 -96Q272
-82 298 -60T338 -15T352 24L361 108L390 39Q381 32 370 27T346 22Q314 22 292 39T270 88Q270 122 294 148T359 175Q395 175 416 148T437 73Q437 11 412 -36T346 -115T257 -160Z" />
<glyph unicode="&#x2022;" horiz-adv-x="337" d="M157 124Q106 124 72 158T38 247Q38 284 55 319T105 378T181 401Q232 401 265 367T299 278Q299 241 282 205T232 147T157 124Z" />
<glyph unicode="&#x2039;" horiz-adv-x="276" d="M144 56L40 204L59 308L211 446L256 397L125 247L202 93L144 56Z" />
<glyph unicode="&#x203a;" horiz-adv-x="276" d="M72 56L27 105L159 255L82 409L140 446L244 298L225 194L72 56Z" />
</font>
</defs>
</svg>
