<?xml version="1.0" encoding="UTF-8" standalone="no"?>
<svg xmlns:dc="http://purl.org/dc/elements/1.1/" xmlns:cc="http://creativecommons.org/ns#" xmlns:rdf="http://www.w3.org/1999/02/22-rdf-syntax-ns#" xmlns:svg="http://www.w3.org/2000/svg" xmlns="http://www.w3.org/2000/svg" xmlns:sodipodi="http://sodipodi.sourceforge.net/DTD/sodipodi-0.dtd" xmlns:inkscape="http://www.inkscape.org/namespaces/inkscape" inkscape:version="1.0 (4035a4fb49, 2020-05-01)" sodipodi:docname="Atomic_1color_scalable_fix.svg" xml:space="preserve" enable-background="new 0 0 278.072 279" viewBox="0 0 278.072 279" height="279px" width="278.072px" y="0px" x="0px" id="Layer_1" version="1.1" data-ember-extension="1"><script xmlns="" id="__gaOptOutExtension"/><script xmlns=""/><metadata id="metadata150"><rdf:RDF><cc:Work rdf:about=""><dc:format>image/svg+xml</dc:format><dc:type rdf:resource="http://purl.org/dc/dcmitype/StillImage"/><dc:title/></cc:Work></rdf:RDF></metadata><defs id="defs148"/><sodipodi:namedview inkscape:guide-bbox="true" showguides="true" inkscape:current-layer="Layer_1" inkscape:window-maximized="1" inkscape:window-y="65" inkscape:window-x="10" inkscape:cy="134.38449" inkscape:cx="121.13199" inkscape:zoom="4.2071586" showgrid="false" id="namedview146" inkscape:window-height="1004" inkscape:window-width="1898" inkscape:pageshadow="2" inkscape:pageopacity="0" guidetolerance="10" gridtolerance="10" objecttolerance="10" borderopacity="1" bordercolor="#666666" pagecolor="#ffffff"><sodipodi:guide id="guide1348" orientation="1,0" position="135.95875,192.95618"/></sodipodi:namedview>


<g style="display:inline" inkscape:label="atom" id="layer1" inkscape:groupmode="layer"><path style="fill:#000000;fill-opacity:1" id="path109" d="m 277.675,140.095 c 0,-13.332 -14.566,-25.771 -41.018,-35.025 -3.054,-1.068 -6.235,-2.075 -9.513,-3.03 1.539,-2.823 2.992,-5.621 4.318,-8.374 12.159,-25.247 13.664,-44.343 4.237,-53.77 -4.225,-4.225 -10.231,-6.367 -17.854,-6.367 -11.588,0 -26.666,5.124 -43.381,14.226 -0.683,-2.212 -1.382,-4.391 -2.118,-6.495 -9.254,-26.451 -21.692,-41.018 -35.024,-41.018 -13.332,0 -25.771,14.567 -35.025,41.018 -1.61,4.602 -3.085,9.482 -4.435,14.582 -17.289,-7.94 -32.937,-12.348 -45.228,-12.348 -9.451,0 -16.438,2.614 -20.764,7.771 -8.569,10.211 -5.407,29.103 8.905,53.194 0.122,0.205 0.257,0.413 0.38,0.618 -26.434,9.253 -40.991,21.688 -40.991,35.016 0,13.332 14.567,25.771 41.017,35.025 1.726,0.604 3.495,1.188 5.294,1.755 -0.964,1.841 -1.896,3.671 -2.768,5.48 -12.16,25.247 -13.665,44.343 -4.238,53.77 4.055,4.055 9.912,6.111 17.408,6.111 10e-4,0 10e-4,0 0.003,0 11.537,0 26.389,-4.91 42.799,-13.65 0.834,2.793 1.7,5.527 2.619,8.152 9.255,26.45 21.694,41.018 35.025,41.018 13.332,0 25.771,-14.567 35.024,-41.018 1.409,-4.027 2.708,-8.28 3.919,-12.692 18.152,8.579 34.606,13.373 47.412,13.373 9.451,0 16.438,-2.614 20.764,-7.771 8.569,-10.212 5.406,-29.104 -8.905,-53.194 -0.157,-0.265 -0.331,-0.532 -0.49,-0.798 0.533,-0.181 1.084,-0.352 1.61,-0.536 26.451,-9.253 41.018,-21.691 41.018,-35.023 z M 217.847,35.53 c 7.072,0 12.604,1.945 16.439,5.781 8.779,8.78 7.137,27.065 -4.625,51.488 -1.374,2.854 -2.881,5.753 -4.486,8.683 -12.477,-3.501 -26.431,-6.183 -41.334,-7.971 -1.938,-15.925 -4.903,-30.75 -8.795,-43.835 16.527,-9.051 31.408,-14.146 42.801,-14.146 z M 184.521,139 c 0,6.311 -0.151,12.521 -0.438,18.606 -4.209,4.635 -8.583,9.238 -13.124,13.779 -5.451,5.451 -10.985,10.657 -16.546,15.603 -5.087,0.199 -10.254,0.305 -15.492,0.305 -6.222,0 -12.345,-0.147 -18.349,-0.426 -4.266,-3.289 -8.523,-6.707 -12.752,-10.256 -5.955,-4.997 -11.646,-10.071 -17.055,-15.174 -0.418,-7.304 -0.639,-14.797 -0.639,-22.438 0,-6.824 0.176,-13.531 0.511,-20.09 4.345,-4.801 8.874,-9.569 13.576,-14.272 3.806,-3.806 7.648,-7.494 11.509,-11.059 7.543,-0.447 15.292,-0.683 23.199,-0.683 5.318,0 10.563,0.109 15.726,0.314 4.633,3.545 9.259,7.241 13.85,11.094 5.374,4.51 10.537,9.082 15.469,13.682 0.363,6.853 0.555,13.87 0.555,21.015 z M 169.78,102.772 c -3.865,-3.243 -7.755,-6.379 -11.654,-9.408 8.23,0.401 16.229,1.054 23.924,1.939 0.748,6.407 1.335,13.026 1.749,19.815 -4.52,-4.168 -9.191,-8.294 -14.019,-12.346 z M 155.368,91.248 c -6.76,-5.153 -13.535,-9.968 -20.252,-14.404 13.106,-10.538 26.072,-19.417 38.197,-26.212 3.659,12.494 6.559,26.908 8.491,42.644 -8.549,-0.974 -17.391,-1.654 -26.436,-2.028 z m -3.484,-0.137 c -4.284,-0.139 -8.607,-0.214 -12.964,-0.214 -7.048,0 -14.014,0.187 -20.857,0.547 5.134,-4.664 10.292,-9.1 15.435,-13.286 6.094,4.013 12.241,8.339 18.386,12.953 z m -37.003,0.526 c -7.542,0.461 -14.928,1.128 -22.085,2.013 1.535,-12.617 3.692,-24.391 6.363,-35.014 10.41,4.92 21.396,11.104 32.592,18.378 -5.626,4.591 -11.268,9.471 -16.87,14.623 z m -2.3,2.142 c -3.28,3.065 -6.546,6.208 -9.783,9.445 -4.135,4.135 -8.125,8.324 -11.988,12.539 0.408,-6.878 0.993,-13.583 1.743,-20.071 6.465,-0.807 13.155,-1.448 20.028,-1.913 z m -23.906,24.31 c -6.652,7.378 -12.837,14.834 -18.514,22.261 -10.564,-11.788 -19.385,-23.388 -26.108,-34.216 13.22,-4.4 28.994,-7.891 46.468,-10.181 -0.821,7.191 -1.446,14.582 -1.846,22.136 z m -0.144,3.178 c -0.26,5.838 -0.406,11.752 -0.406,17.733 0,6.898 0.176,13.721 0.522,20.424 -6.102,-5.847 -11.828,-11.724 -17.125,-17.562 5.235,-6.866 10.925,-13.758 17.009,-20.595 z m 0.291,41.073 c 0.444,7.486 1.096,14.817 1.957,21.931 -15.294,-1.991 -29.293,-4.901 -41.423,-8.536 5.624,-10.428 12.687,-21.299 20.943,-32.27 5.753,6.33 11.948,12.645 18.523,18.875 z m 2.119,2.008 c 5,4.664 10.205,9.274 15.592,13.795 3.502,2.938 7.025,5.783 10.557,8.547 -8.367,-0.466 -16.482,-1.193 -24.272,-2.159 -0.797,-6.517 -1.427,-13.259 -1.877,-20.183 z m 28.908,24.481 c 5.78,4.44 11.576,8.632 17.34,12.554 -12.46,9.76 -24.774,18.002 -36.332,24.342 -3.295,-11.61 -5.942,-24.817 -7.784,-39.152 8.638,1.06 17.599,1.815 26.776,2.256 z m 3.485,0.15 c 5.141,0.201 10.337,0.314 15.585,0.314 4.412,0 8.791,-0.076 13.13,-0.219 -4.403,3.851 -8.818,7.527 -13.219,11.019 -5.147,-3.492 -10.324,-7.2 -15.496,-11.114 z m 31.873,-0.031 c 9.002,-0.367 17.805,-1.039 26.316,-2.001 -1.605,12.386 -3.813,23.924 -6.521,34.312 -11.013,-5.349 -22.639,-12.091 -34.441,-19.996 4.88,-3.882 9.774,-8 14.646,-12.315 z m 2.351,-2.095 c 4.979,-4.483 9.932,-9.17 14.814,-14.053 3.979,-3.979 7.822,-8.008 11.55,-12.062 -0.462,8.333 -1.184,16.416 -2.142,24.178 -7.79,0.89 -15.887,1.543 -24.222,1.937 z m 28.483,-28.424 c 6.23,-6.886 12.075,-13.842 17.463,-20.781 11.681,12.722 21.373,25.278 28.638,36.946 -13.768,4.434 -30.179,7.9 -48.322,10.083 1.035,-8.475 1.781,-17.256 2.221,-26.248 z m 0.136,-3.151 c 0.219,-5.367 0.344,-10.794 0.344,-16.278 0,-6.428 -0.162,-12.782 -0.463,-19.043 5.689,5.387 11.056,10.805 16.07,16.199 -4.944,6.38 -10.283,12.776 -15.951,19.122 z m -0.268,-38.202 c -0.408,-7.345 -1.024,-14.536 -1.833,-21.531 14.675,1.777 28.212,4.394 40.127,7.683 -5.696,10.158 -12.729,20.703 -20.847,31.316 -5.459,-5.864 -11.295,-11.707 -17.447,-17.468 z M 137.323,2.244 c 14.092,0 26.758,17.993 35.414,46.459 C 160.236,55.669 146.866,64.82 133.378,75.694 121.8,68.147 110.428,61.75 99.657,56.685 108.281,23.64 121.956,2.244 137.323,2.244 Z M 33.403,52.552 c 3.929,-4.682 10.399,-7.056 19.232,-7.056 12.119,0 27.595,4.387 44.722,12.29 -2.835,11.106 -5.05,23.265 -6.6,36.128 -17.62,2.29 -33.829,5.848 -47.73,10.54 C 29.279,81.739 24.968,62.604 33.403,52.552 Z M 2.165,140.095 c 0,-12.999 15.307,-24.788 40.025,-33.332 7.014,11.405 16.071,23.308 26.742,35.2 C 60.424,153.239 53.16,164.421 47.407,175.137 19.645,166.492 2.165,153.985 2.165,140.095 Z m 54.712,100.141 c -6.946,0 -12.328,-1.859 -15.994,-5.525 -8.779,-8.78 -7.137,-27.065 4.626,-51.487 0.915,-1.899 1.9,-3.823 2.919,-5.759 12.713,3.866 27.112,6.848 42.599,8.847 1.854,14.564 4.566,28.191 8.072,40.357 -16.223,8.687 -30.878,13.568 -42.222,13.567 z m 80.446,35.52 c -14.361,0 -27.242,-18.686 -35.906,-48.1 11.933,-6.509 24.648,-15.011 37.493,-25.1 12.185,8.188 24.199,15.149 35.577,20.648 -8.646,31.972 -22.091,52.552 -37.164,52.552 z m 105.588,-47.393 c -3.93,4.682 -10.4,7.056 -19.232,7.056 -12.626,0 -28.899,-4.771 -46.883,-13.31 2.873,-10.863 5.146,-22.772 6.768,-35.398 18.285,-2.178 35.149,-5.702 49.612,-10.431 13.835,22.794 18.192,42.004 9.735,52.083 z m -38.182,-92.324 c 8.379,-10.931 15.624,-21.797 21.458,-32.255 30.215,8.665 49.487,21.725 49.487,36.311 0,13.282 -15.985,25.299 -41.658,33.884 -7.573,-12.285 -17.521,-25.143 -29.287,-37.94 z"/></g><rect id="rect113" height="110.789" width="45.689999" y="91.93" x="138.8037"/>
<g id="g117">
	
</g>
<rect style="fill:#ffffff;fill-opacity:1" x="88.993912" y="90.588562" width="45.689999" height="110.789" id="rect113-3"/><path sodipodi:nodetypes="cccccccccccccccccsccscccscssccscccscssccscccscs" d="M 136.44922,49.605469 83.962891,61.867188 v 13.552734 l 2.011718,0.470703 v 75.521485 55.67187 l 0.0098,0.002 v 14.18554 l 5.828125,1.67774 -0.01563,-14.51953 38.546876,8.90234 v 12.99177 l 6.17578,1.6192 c -0.0197,-49.7147 -0.0181,-101.34159 -0.0176,-144.271125 L 189.58399,75.634806 V 61.652384 Z M 101.41211,90.65625 c 1.05226,-0.02527 2.25648,0.124047 3.63086,0.498047 l 11.4668,3.117187 c 0,0 10.99804,2.990725 10.99804,14.386716 v 6.83789 c 0,0 -0.001,11.3963 -10.99804,8.4043 l -11.4668,-3.12109 c 0,0 -10.996095,-2.99172 -10.996095,-14.38672 v -6.833986 c 0,0 -5.59e-4,-8.725485 7.365235,-8.902344 z m 0,35.94141 c 1.05226,-0.0253 2.25648,0.12417 3.63086,0.49804 l 11.4668,3.1211 c 0,0 10.99804,2.98876 10.99804,14.38476 v 6.83789 c 0,0 -4e-5,11.39535 -10.99804,8.40235 l -11.4668,-3.11719 c 0,0 -10.996095,-2.98977 -10.996095,-14.38477 V 135.5 c 0,0 -5.58e-4,-8.72501 7.365235,-8.90234 z m 0,35.65625 c 1.05226,-0.0255 2.25648,0.12429 3.63086,0.49804 l 11.4668,3.11914 c 0,0 10.99804,2.99268 10.99804,14.38868 v 6.83398 c 0,0 -4e-5,11.39434 -10.99804,8.40234 l -11.4668,-3.11523 c 0,0 -10.996095,-2.99267 -10.996095,-14.38867 v -6.83399 c 0,0 -5.57e-4,-8.72609 7.365235,-8.90429 z" style="fill:#000000;fill-opacity:1;stroke:#000000;stroke-linecap:round;stroke-linejoin:round;stroke-opacity:1" id="polygon129"/><g style="fill:#ffffff;fill-opacity:1;stroke:none" id="g121">
	<path sodipodi:nodetypes="cccccccccsccscsccscssccscsccccssccscsccscs" style="fill:#ffffff;fill-opacity:1;stroke:#000000;stroke-width:1.5;stroke-linejoin:round;stroke-miterlimit:4;stroke-dasharray:none;stroke-opacity:1" id="path119" d="m 136.485,231.74071 c 0,0 -1.30636,-95.06473 -1.306,-143.622891 l 52.526,-12.137 0.006,143.302281 -7.829,2.254 0.018,-11.8551 -35.281,8.15 v 11.72552 z M 171.033,163.252 c -0.946,0 -2.002,0.157 -3.136,0.465 l -11.467,3.12 c -0.417,0.115 -10.259,2.949 -10.259,13.422 v 6.834 c 0.001,0.321 0.103,7.905 6.595,7.905 0.947,0 2.004,-0.157 3.139,-0.466 l 11.467,-3.116 c 0.417,-0.115 10.26,-2.95 10.26,-13.423 v -6.835 c -0.001,-0.321 -0.103,-7.906 -6.599,-7.906 z m 0.002,-35.653 c -0.947,0 -2.003,0.156 -3.138,0.465 l -11.467,3.12 c -0.418,0.115 -10.259,2.947 -10.259,13.42 v 6.838 c 0.001,0.321 0.102,7.903 6.595,7.903 0.947,0 2.003,-0.157 3.139,-0.466 l 11.467,-3.119 c 0.418,-0.115 10.26,-2.947 10.26,-13.419 l 0.001,-6.838 c -0.001,-0.321 -0.102,-7.904 -6.598,-7.904 z m 0.001,-35.944 c -0.947,0 -2.004,0.157 -3.139,0.465 l -11.467,3.118 c -0.418,0.115 -10.259,2.948 -10.259,13.421 v 6.839 c 0.001,0.321 0.103,7.903 6.596,7.903 0.947,0 2.003,-0.157 3.138,-0.465 l 11.467,-3.12 c 0.418,-0.115 10.261,-2.95 10.261,-13.422 v -6.835 c -0.001,-0.321 -0.102,-7.904 -6.597,-7.904 z"/>
</g>






<rect id="rect139" height="279" width="278.072" fill="none"/>

<path id="path143" d="M119.026,234.943" fill="#FFFFFF"/>
<g style="mix-blend-mode:normal" inkscape:label="telephon" id="layer2" inkscape:groupmode="layer"/><polygon style="fill:#ffffff;fill-opacity:1" transform="translate(-0.64372622,-0.65872594)" points="160.37,68.645 136.667,73.27 96.119,64.829 92.741,64.125 135.806,53.477 182.778,64.272 165.712,67.602 " id="polygon1318"/></svg>